solid OpenSCAD_Model
  facet normal -1 0 0
    outer loop
      vertex 0 0 0
      vertex 0 1.15 0.9
      vertex 0 1.15 0
    endloop
  endfacet
  facet normal -1 -0 0
    outer loop
      vertex 0 1.15 0.9
      vertex 0 0 0
      vertex 0 0 0.9
    endloop
  endfacet
  facet normal -1 0 0
    outer loop
      vertex 0 6.65 0
      vertex 0 7.8 0.9
      vertex 0 7.8 0
    endloop
  endfacet
  facet normal -1 -0 0
    outer loop
      vertex 0 7.8 0.9
      vertex 0 6.65 0
      vertex 0 6.65 0.9
    endloop
  endfacet
  facet normal 0 0 1
    outer loop
      vertex 0.9 7.8 0.9
      vertex 0.65 7.35 0.9
      vertex 0.9 6.65 0.9
    endloop
  endfacet
  facet normal 0 0 1
    outer loop
      vertex 0.9 7.8 0.9
      vertex 0.640211 7.4118 0.9
      vertex 0.65 7.35 0.9
    endloop
  endfacet
  facet normal 0 0 1
    outer loop
      vertex 0.9 7.8 0.9
      vertex 0.611803 7.46756 0.9
      vertex 0.640211 7.4118 0.9
    endloop
  endfacet
  facet normal 0 0 1
    outer loop
      vertex 0.9 7.8 0.9
      vertex 0.567556 7.5118 0.9
      vertex 0.611803 7.46756 0.9
    endloop
  endfacet
  facet normal 0 0 1
    outer loop
      vertex 0.9 7.8 0.9
      vertex 0.511803 7.54021 0.9
      vertex 0.567556 7.5118 0.9
    endloop
  endfacet
  facet normal 0 0 1
    outer loop
      vertex 0.9 7.8 0.9
      vertex 0.45 7.55 0.9
      vertex 0.511803 7.54021 0.9
    endloop
  endfacet
  facet normal -0 0 1
    outer loop
      vertex 0 7.8 0.9
      vertex 0.45 7.55 0.9
      vertex 0.9 7.8 0.9
    endloop
  endfacet
  facet normal 0 0 1
    outer loop
      vertex 0.259789 7.4118 0.9
      vertex 0 7.8 0.9
      vertex 0.25 7.35 0.9
    endloop
  endfacet
  facet normal 0 0 1
    outer loop
      vertex 0.288197 7.46756 0.9
      vertex 0 7.8 0.9
      vertex 0.259789 7.4118 0.9
    endloop
  endfacet
  facet normal 0 0 1
    outer loop
      vertex 0.332442 7.5118 0.9
      vertex 0 7.8 0.9
      vertex 0.288197 7.46756 0.9
    endloop
  endfacet
  facet normal 0 0 1
    outer loop
      vertex 0.388196 7.54021 0.9
      vertex 0 7.8 0.9
      vertex 0.332442 7.5118 0.9
    endloop
  endfacet
  facet normal 0 0 1
    outer loop
      vertex 0.45 7.55 0.9
      vertex 0 7.8 0.9
      vertex 0.388196 7.54021 0.9
    endloop
  endfacet
  facet normal -0 0 1
    outer loop
      vertex 0.9 6.65 0.9
      vertex 1.3 5.9 0.9
      vertex 1.3 6.65 0.9
    endloop
  endfacet
  facet normal -0 0 1
    outer loop
      vertex 0.640211 7.2882 0.9
      vertex 0.9 6.65 0.9
      vertex 0.65 7.35 0.9
    endloop
  endfacet
  facet normal -0 0 1
    outer loop
      vertex 0.611803 7.23244 0.9
      vertex 0.9 6.65 0.9
      vertex 0.640211 7.2882 0.9
    endloop
  endfacet
  facet normal -0 0 1
    outer loop
      vertex 0.567556 7.1882 0.9
      vertex 0.9 6.65 0.9
      vertex 0.611803 7.23244 0.9
    endloop
  endfacet
  facet normal -0 0 1
    outer loop
      vertex 0.511803 7.15979 0.9
      vertex 0.9 6.65 0.9
      vertex 0.567556 7.1882 0.9
    endloop
  endfacet
  facet normal -0 0 1
    outer loop
      vertex 0.45 7.15 0.9
      vertex 0.9 6.65 0.9
      vertex 0.511803 7.15979 0.9
    endloop
  endfacet
  facet normal 0 0 1
    outer loop
      vertex 0.9 6.65 0.9
      vertex 0.5 5.9 0.9
      vertex 1.3 5.9 0.9
    endloop
  endfacet
  facet normal -0 0 1
    outer loop
      vertex 0.299999 5.9 0.9
      vertex 0.5 4.9 0.9
      vertex 0.5 5.9 0.9
    endloop
  endfacet
  facet normal 0 0 1
    outer loop
      vertex 0.5 4.9 0.9
      vertex 0.299999 5.9 0.9
      vertex 0.5 2.9 0.9
    endloop
  endfacet
  facet normal 0 0 1
    outer loop
      vertex 0.9 6.65 0.9
      vertex 0 6.65 0.9
      vertex 0.5 5.9 0.9
    endloop
  endfacet
  facet normal 0 0 1
    outer loop
      vertex 0.9 6.65 0.9
      vertex 0.45 7.15 0.9
      vertex 0 6.65 0.9
    endloop
  endfacet
  facet normal -0 0 1
    outer loop
      vertex 0.5 4.9 0.9
      vertex 1.3 2.9 0.9
      vertex 1.3 4.9 0.9
    endloop
  endfacet
  facet normal 0 0 1
    outer loop
      vertex 1.3 2.9 0.9
      vertex 0.5 4.9 0.9
      vertex 0.5 2.9 0.9
    endloop
  endfacet
  facet normal 0 0 1
    outer loop
      vertex 1.3 1.9 0.9
      vertex 0.9 1.15 0.9
      vertex 1.3 1.15 0.9
    endloop
  endfacet
  facet normal 0 0 1
    outer loop
      vertex 0.9 1.15 0.9
      vertex 0.65 0.45 0.9
      vertex 0.9 0 0.9
    endloop
  endfacet
  facet normal 0 0 1
    outer loop
      vertex 0.9 1.15 0.9
      vertex 0.640211 0.511803 0.9
      vertex 0.65 0.45 0.9
    endloop
  endfacet
  facet normal 0 0 1
    outer loop
      vertex 0.9 1.15 0.9
      vertex 0.611803 0.567556 0.9
      vertex 0.640211 0.511803 0.9
    endloop
  endfacet
  facet normal 0 0 1
    outer loop
      vertex 0.9 1.15 0.9
      vertex 0.567556 0.611803 0.9
      vertex 0.611803 0.567556 0.9
    endloop
  endfacet
  facet normal -0 0 1
    outer loop
      vertex 0.5 1.9 0.9
      vertex 0.9 1.15 0.9
      vertex 1.3 1.9 0.9
    endloop
  endfacet
  facet normal 0 0 1
    outer loop
      vertex 0 1.15 0.9
      vertex 0.9 1.15 0.9
      vertex 0.5 1.9 0.9
    endloop
  endfacet
  facet normal 0 0 1
    outer loop
      vertex 0.9 1.15 0.9
      vertex 0.511803 0.640211 0.9
      vertex 0.567556 0.611803 0.9
    endloop
  endfacet
  facet normal 0 0 1
    outer loop
      vertex 0.299999 1.9 0.9
      vertex 0.5 2.9 0.9
      vertex 0.299999 5.9 0.9
    endloop
  endfacet
  facet normal 0 0 1
    outer loop
      vertex 0.5 2.9 0.9
      vertex 0.299999 1.9 0.9
      vertex 0.5 1.9 0.9
    endloop
  endfacet
  facet normal 0 0 1
    outer loop
      vertex 0 6.65 0.9
      vertex 0.45 7.15 0.9
      vertex 0.388196 7.15979 0.9
    endloop
  endfacet
  facet normal 0 0 1
    outer loop
      vertex 0 1.15 0.9
      vertex 0.5 1.9 0.9
      vertex 0.299999 1.9 0.9
    endloop
  endfacet
  facet normal 0 0 1
    outer loop
      vertex 0 6.65 0.9
      vertex 0.388196 7.15979 0.9
      vertex 0.332442 7.1882 0.9
    endloop
  endfacet
  facet normal 0 -0 1
    outer loop
      vertex 0.45 0.65 0.9
      vertex 0.9 1.15 0.9
      vertex 0 1.15 0.9
    endloop
  endfacet
  facet normal 0 0 1
    outer loop
      vertex 0.9 1.15 0.9
      vertex 0.45 0.65 0.9
      vertex 0.511803 0.640211 0.9
    endloop
  endfacet
  facet normal 0 0 1
    outer loop
      vertex 0 6.65 0.9
      vertex 0.332442 7.1882 0.9
      vertex 0.288197 7.23244 0.9
    endloop
  endfacet
  facet normal 0 0 1
    outer loop
      vertex 0 6.65 0.9
      vertex 0.288197 7.23244 0.9
      vertex 0.259789 7.2882 0.9
    endloop
  endfacet
  facet normal 0 0 1
    outer loop
      vertex 0 6.65 0.9
      vertex 0.259789 7.2882 0.9
      vertex 0.25 7.35 0.9
    endloop
  endfacet
  facet normal 0 0 1
    outer loop
      vertex 0 6.65 0.9
      vertex 0.25 7.35 0.9
      vertex 0 7.8 0.9
    endloop
  endfacet
  facet normal 0 0 1
    outer loop
      vertex 0.5 5.9 0.9
      vertex 0 6.65 0.9
      vertex 0.299999 5.9 0.9
    endloop
  endfacet
  facet normal 0 0 1
    outer loop
      vertex -0.5 5.9 0.9
      vertex 0 6.65 0.9
      vertex -0.5 6.65 0.9
    endloop
  endfacet
  facet normal 0 0 1
    outer loop
      vertex 0 6.65 0.9
      vertex -0.5 5.9 0.9
      vertex 0.299999 5.9 0.9
    endloop
  endfacet
  facet normal -0 0 1
    outer loop
      vertex 0.640211 0.388196 0.9
      vertex 0.9 0 0.9
      vertex 0.65 0.45 0.9
    endloop
  endfacet
  facet normal -0 0 1
    outer loop
      vertex 0.611803 0.332442 0.9
      vertex 0.9 0 0.9
      vertex 0.640211 0.388196 0.9
    endloop
  endfacet
  facet normal -0 0 1
    outer loop
      vertex 0.567556 0.288197 0.9
      vertex 0.9 0 0.9
      vertex 0.611803 0.332442 0.9
    endloop
  endfacet
  facet normal -0 0 1
    outer loop
      vertex 0.511803 0.259789 0.9
      vertex 0.9 0 0.9
      vertex 0.567556 0.288197 0.9
    endloop
  endfacet
  facet normal -0 0 1
    outer loop
      vertex 0.45 0.25 0.9
      vertex 0.9 0 0.9
      vertex 0.511803 0.259789 0.9
    endloop
  endfacet
  facet normal 0 0 1
    outer loop
      vertex 0 0 0.9
      vertex 0.45 0.25 0.9
      vertex 0.388196 0.259789 0.9
    endloop
  endfacet
  facet normal 0 0 1
    outer loop
      vertex 0 0 0.9
      vertex 0.25 0.45 0.9
      vertex 0 1.15 0.9
    endloop
  endfacet
  facet normal 0 0 1
    outer loop
      vertex 0.45 0.25 0.9
      vertex 0 0 0.9
      vertex 0.9 0 0.9
    endloop
  endfacet
  facet normal 0 0 1
    outer loop
      vertex 0.332442 0.288197 0.9
      vertex 0 0 0.9
      vertex 0.388196 0.259789 0.9
    endloop
  endfacet
  facet normal 0 0 1
    outer loop
      vertex 0.288197 0.332442 0.9
      vertex 0 0 0.9
      vertex 0.332442 0.288197 0.9
    endloop
  endfacet
  facet normal 0 0 1
    outer loop
      vertex 0.259789 0.388196 0.9
      vertex 0 0 0.9
      vertex 0.288197 0.332442 0.9
    endloop
  endfacet
  facet normal 0 0 1
    outer loop
      vertex 0.25 0.45 0.9
      vertex 0 0 0.9
      vertex 0.259789 0.388196 0.9
    endloop
  endfacet
  facet normal 0 0 1
    outer loop
      vertex 0.45 0.65 0.9
      vertex 0 1.15 0.9
      vertex 0.388196 0.640211 0.9
    endloop
  endfacet
  facet normal 0 0 1
    outer loop
      vertex 0.388196 0.640211 0.9
      vertex 0 1.15 0.9
      vertex 0.332442 0.611803 0.9
    endloop
  endfacet
  facet normal 0 0 1
    outer loop
      vertex 0.332442 0.611803 0.9
      vertex 0 1.15 0.9
      vertex 0.288197 0.567556 0.9
    endloop
  endfacet
  facet normal 0 0 1
    outer loop
      vertex 0.288197 0.567556 0.9
      vertex 0 1.15 0.9
      vertex 0.259789 0.511803 0.9
    endloop
  endfacet
  facet normal 0 0 1
    outer loop
      vertex 0.259789 0.511803 0.9
      vertex 0 1.15 0.9
      vertex 0.25 0.45 0.9
    endloop
  endfacet
  facet normal -0 0 1
    outer loop
      vertex -0.5 1.9 0.9
      vertex 0 1.15 0.9
      vertex 0.299999 1.9 0.9
    endloop
  endfacet
  facet normal 0 0 1
    outer loop
      vertex 0 1.15 0.9
      vertex -0.5 1.9 0.9
      vertex -0.5 1.15 0.9
    endloop
  endfacet
  facet normal 1 -0 0
    outer loop
      vertex 0.9 0 0.9
      vertex 0.9 1.15 0
      vertex 0.9 1.15 0.9
    endloop
  endfacet
  facet normal 1 0 0
    outer loop
      vertex 0.9 1.15 0
      vertex 0.9 0 0.9
      vertex 0.9 0 0
    endloop
  endfacet
  facet normal 1 -0 0
    outer loop
      vertex 0.9 6.65 0.9
      vertex 0.9 7.8 0
      vertex 0.9 7.8 0.9
    endloop
  endfacet
  facet normal 1 0 0
    outer loop
      vertex 0.9 7.8 0
      vertex 0.9 6.65 0.9
      vertex 0.9 6.65 0
    endloop
  endfacet
  facet normal 0 0 -1
    outer loop
      vertex -0.5 1.15 0
      vertex 0 6.65 0
      vertex 0 1.15 0
    endloop
  endfacet
  facet normal -0 0 -1
    outer loop
      vertex 0 6.65 0
      vertex -0.5 1.15 0
      vertex -0.5 6.65 0
    endloop
  endfacet
  facet normal 0 0 -1
    outer loop
      vertex 0.567556 0.611803 0
      vertex 0.9 1.15 0
      vertex 0.611803 0.567556 0
    endloop
  endfacet
  facet normal 0 0 -1
    outer loop
      vertex 0.9 6.65 0
      vertex 0.640211 7.2882 0
      vertex 0.65 7.35 0
    endloop
  endfacet
  facet normal 0 0 -1
    outer loop
      vertex 0.511803 0.640211 0
      vertex 0.9 1.15 0
      vertex 0.567556 0.611803 0
    endloop
  endfacet
  facet normal 0 0 -1
    outer loop
      vertex 0.9 6.65 0
      vertex 0.611803 7.23244 0
      vertex 0.640211 7.2882 0
    endloop
  endfacet
  facet normal 0 0 -1
    outer loop
      vertex 0.9 1.15 0
      vertex 0 1.15 0
      vertex 0.9 6.65 0
    endloop
  endfacet
  facet normal 0 0 -1
    outer loop
      vertex 0.9 6.65 0
      vertex 0.567556 7.1882 0
      vertex 0.611803 7.23244 0
    endloop
  endfacet
  facet normal 0 0 -1
    outer loop
      vertex 0.45 0.65 0
      vertex 0.9 1.15 0
      vertex 0.511803 0.640211 0
    endloop
  endfacet
  facet normal 0 0 -1
    outer loop
      vertex 0 6.65 0
      vertex 0.9 6.65 0
      vertex 0 1.15 0
    endloop
  endfacet
  facet normal -0 0 -1
    outer loop
      vertex 0.9 1.15 0
      vertex 0.45 0.65 0
      vertex 0 1.15 0
    endloop
  endfacet
  facet normal 0 -0 -1
    outer loop
      vertex 0.45 7.15 0
      vertex 0.9 6.65 0
      vertex 0 6.65 0
    endloop
  endfacet
  facet normal 0 0 -1
    outer loop
      vertex 0 1.15 0
      vertex 0.45 0.65 0
      vertex 0.388196 0.640211 0
    endloop
  endfacet
  facet normal 0 0 -1
    outer loop
      vertex 0.9 6.65 0
      vertex 0.511803 7.15979 0
      vertex 0.567556 7.1882 0
    endloop
  endfacet
  facet normal 0 0 -1
    outer loop
      vertex 0 1.15 0
      vertex 0.388196 0.640211 0
      vertex 0.332442 0.611803 0
    endloop
  endfacet
  facet normal 0 0 -1
    outer loop
      vertex 0.9 6.65 0
      vertex 0.45 7.15 0
      vertex 0.511803 7.15979 0
    endloop
  endfacet
  facet normal 0 0 -1
    outer loop
      vertex 0 1.15 0
      vertex 0.332442 0.611803 0
      vertex 0.288197 0.567556 0
    endloop
  endfacet
  facet normal -0 0 -1
    outer loop
      vertex 0.45 7.15 0
      vertex 0 6.65 0
      vertex 0.388196 7.15979 0
    endloop
  endfacet
  facet normal 0 0 -1
    outer loop
      vertex 0 1.15 0
      vertex 0.288197 0.567556 0
      vertex 0.259789 0.511803 0
    endloop
  endfacet
  facet normal -0 0 -1
    outer loop
      vertex 0.388196 7.15979 0
      vertex 0 6.65 0
      vertex 0.332442 7.1882 0
    endloop
  endfacet
  facet normal 0 0 -1
    outer loop
      vertex 0 1.15 0
      vertex 0.259789 0.511803 0
      vertex 0.25 0.45 0
    endloop
  endfacet
  facet normal -0 0 -1
    outer loop
      vertex 0.332442 7.1882 0
      vertex 0 6.65 0
      vertex 0.288197 7.23244 0
    endloop
  endfacet
  facet normal 0 0 -1
    outer loop
      vertex 0.65 0.45 0
      vertex 0.9 1.15 0
      vertex 0.9 0 0
    endloop
  endfacet
  facet normal 0 0 -1
    outer loop
      vertex 0.640211 0.511803 0
      vertex 0.9 1.15 0
      vertex 0.65 0.45 0
    endloop
  endfacet
  facet normal 0 0 -1
    outer loop
      vertex 0.611803 0.567556 0
      vertex 0.9 1.15 0
      vertex 0.640211 0.511803 0
    endloop
  endfacet
  facet normal 0 0 -1
    outer loop
      vertex 0.9 0 0
      vertex 0.640211 0.388196 0
      vertex 0.65 0.45 0
    endloop
  endfacet
  facet normal 0 0 -1
    outer loop
      vertex 0.9 0 0
      vertex 0.611803 0.332442 0
      vertex 0.640211 0.388196 0
    endloop
  endfacet
  facet normal 0 0 -1
    outer loop
      vertex 0.9 0 0
      vertex 0.567556 0.288197 0
      vertex 0.611803 0.332442 0
    endloop
  endfacet
  facet normal 0 0 -1
    outer loop
      vertex 0.9 0 0
      vertex 0.511803 0.259789 0
      vertex 0.567556 0.288197 0
    endloop
  endfacet
  facet normal 0 0 -1
    outer loop
      vertex 0.9 0 0
      vertex 0.45 0.25 0
      vertex 0.511803 0.259789 0
    endloop
  endfacet
  facet normal 0 0 -1
    outer loop
      vertex 0 0 0
      vertex 0.45 0.25 0
      vertex 0.9 0 0
    endloop
  endfacet
  facet normal 0 0 -1
    outer loop
      vertex 0 1.15 0
      vertex 0.25 0.45 0
      vertex 0 0 0
    endloop
  endfacet
  facet normal -0 0 -1
    outer loop
      vertex 0.259789 0.388196 0
      vertex 0 0 0
      vertex 0.25 0.45 0
    endloop
  endfacet
  facet normal -0 0 -1
    outer loop
      vertex 0.288197 0.332442 0
      vertex 0 0 0
      vertex 0.259789 0.388196 0
    endloop
  endfacet
  facet normal -0 0 -1
    outer loop
      vertex 0.332442 0.288197 0
      vertex 0 0 0
      vertex 0.288197 0.332442 0
    endloop
  endfacet
  facet normal -0 0 -1
    outer loop
      vertex 0.388196 0.259789 0
      vertex 0 0 0
      vertex 0.332442 0.288197 0
    endloop
  endfacet
  facet normal -0 0 -1
    outer loop
      vertex 0.45 0.25 0
      vertex 0 0 0
      vertex 0.388196 0.259789 0
    endloop
  endfacet
  facet normal 0 0 -1
    outer loop
      vertex 0.9 1.15 0
      vertex 1.3 6.65 0
      vertex 1.3 1.15 0
    endloop
  endfacet
  facet normal -0 0 -1
    outer loop
      vertex 1.3 6.65 0
      vertex 0.9 1.15 0
      vertex 0.9 6.65 0
    endloop
  endfacet
  facet normal 0 0 -1
    outer loop
      vertex 0.9 6.65 0
      vertex 0.65 7.35 0
      vertex 0.9 7.8 0
    endloop
  endfacet
  facet normal 0 0 -1
    outer loop
      vertex 0.640211 7.4118 0
      vertex 0.9 7.8 0
      vertex 0.65 7.35 0
    endloop
  endfacet
  facet normal 0 0 -1
    outer loop
      vertex 0.611803 7.46756 0
      vertex 0.9 7.8 0
      vertex 0.640211 7.4118 0
    endloop
  endfacet
  facet normal 0 0 -1
    outer loop
      vertex 0.567556 7.5118 0
      vertex 0.9 7.8 0
      vertex 0.611803 7.46756 0
    endloop
  endfacet
  facet normal 0 0 -1
    outer loop
      vertex 0.511803 7.54021 0
      vertex 0.9 7.8 0
      vertex 0.567556 7.5118 0
    endloop
  endfacet
  facet normal 0 0 -1
    outer loop
      vertex 0.45 7.55 0
      vertex 0.9 7.8 0
      vertex 0.511803 7.54021 0
    endloop
  endfacet
  facet normal 0 0 -1
    outer loop
      vertex 0 7.8 0
      vertex 0.45 7.55 0
      vertex 0.388196 7.54021 0
    endloop
  endfacet
  facet normal -0 0 -1
    outer loop
      vertex 0.288197 7.23244 0
      vertex 0 6.65 0
      vertex 0.259789 7.2882 0
    endloop
  endfacet
  facet normal -0 0 -1
    outer loop
      vertex 0.259789 7.2882 0
      vertex 0 6.65 0
      vertex 0.25 7.35 0
    endloop
  endfacet
  facet normal 0 0 -1
    outer loop
      vertex 0 7.8 0
      vertex 0.25 7.35 0
      vertex 0 6.65 0
    endloop
  endfacet
  facet normal 0 0 -1
    outer loop
      vertex 0.45 7.55 0
      vertex 0 7.8 0
      vertex 0.9 7.8 0
    endloop
  endfacet
  facet normal 0 0 -1
    outer loop
      vertex 0.332442 7.5118 0
      vertex 0 7.8 0
      vertex 0.388196 7.54021 0
    endloop
  endfacet
  facet normal 0 0 -1
    outer loop
      vertex 0.288197 7.46756 0
      vertex 0 7.8 0
      vertex 0.332442 7.5118 0
    endloop
  endfacet
  facet normal 0 0 -1
    outer loop
      vertex 0.259789 7.4118 0
      vertex 0 7.8 0
      vertex 0.288197 7.46756 0
    endloop
  endfacet
  facet normal 0 0 -1
    outer loop
      vertex 0.25 7.35 0
      vertex 0 7.8 0
      vertex 0.259789 7.4118 0
    endloop
  endfacet
  facet normal 0 -1 0
    outer loop
      vertex 0 0 0
      vertex 0.9 0 0.9
      vertex 0 0 0.9
    endloop
  endfacet
  facet normal 0 -1 -0
    outer loop
      vertex 0.9 0 0.9
      vertex 0 0 0
      vertex 0.9 0 0
    endloop
  endfacet
  facet normal 0 1 -0
    outer loop
      vertex 0.9 7.8 0
      vertex 0 7.8 0.9
      vertex 0.9 7.8 0.9
    endloop
  endfacet
  facet normal 0 1 0
    outer loop
      vertex 0 7.8 0.9
      vertex 0.9 7.8 0
      vertex 0 7.8 0
    endloop
  endfacet
  facet normal -1 0 0
    outer loop
      vertex -0.5 6.65 0
      vertex -0.5 5.9 0.9
      vertex -0.5 6.65 0.9
    endloop
  endfacet
  facet normal -1 0 0
    outer loop
      vertex -0.5 5.59021 2.1382
      vertex -0.5 5.9 2.6
      vertex -0.5 5.9 0.9
    endloop
  endfacet
  facet normal -1 0 0
    outer loop
      vertex -0.5 5.9 2.6
      vertex -0.5 5.59021 2.1382
      vertex -0.5 5.6 2.2
    endloop
  endfacet
  facet normal -1 0 0
    outer loop
      vertex -0.5 5.9 0.9
      vertex -0.5 5.5618 2.08244
      vertex -0.5 5.59021 2.1382
    endloop
  endfacet
  facet normal -1 0 0
    outer loop
      vertex -0.5 5.9 0.9
      vertex -0.5 5.51756 2.0382
      vertex -0.5 5.5618 2.08244
    endloop
  endfacet
  facet normal -1 0 0
    outer loop
      vertex -0.5 5.9 0.9
      vertex -0.5 5.4618 2.00979
      vertex -0.5 5.51756 2.0382
    endloop
  endfacet
  facet normal -1 0 0
    outer loop
      vertex -0.5 5.9 0.9
      vertex -0.5 5.4 2
      vertex -0.5 5.4618 2.00979
    endloop
  endfacet
  facet normal -1 0 0
    outer loop
      vertex -0.5 4.9 1.8
      vertex -0.5 5.4 2
      vertex -0.5 5.9 0.9
    endloop
  endfacet
  facet normal -1 -0 0
    outer loop
      vertex -0.5 5.4 2
      vertex -0.5 4.9 1.8
      vertex -0.5 5.3382 2.00979
    endloop
  endfacet
  facet normal -1 -0 0
    outer loop
      vertex -0.5 5.3382 2.00979
      vertex -0.5 4.9 1.8
      vertex -0.5 5.28244 2.0382
    endloop
  endfacet
  facet normal -1 -0 0
    outer loop
      vertex -0.5 5.20979 2.1382
      vertex -0.5 4.9 1.8
      vertex -0.5 5.2 2.2
    endloop
  endfacet
  facet normal -1 -0 0
    outer loop
      vertex -0.5 5.2382 2.08244
      vertex -0.5 4.9 1.8
      vertex -0.5 5.20979 2.1382
    endloop
  endfacet
  facet normal -1 -0 0
    outer loop
      vertex -0.5 5.28244 2.0382
      vertex -0.5 4.9 1.8
      vertex -0.5 5.2382 2.08244
    endloop
  endfacet
  facet normal -1 0 0
    outer loop
      vertex -0.5 1.9 0.9
      vertex -0.5 5.9 0.9
      vertex -0.5 6.65 0
    endloop
  endfacet
  facet normal -1 0 0
    outer loop
      vertex -0.5 5.9 0.9
      vertex -0.5 1.9 0.9
      vertex -0.5 4.9 1.8
    endloop
  endfacet
  facet normal -1 0 0
    outer loop
      vertex -0.5 2.9 1.8
      vertex -0.5 2.6 2.2
      vertex -0.5 2.9 2.6
    endloop
  endfacet
  facet normal -1 0 0
    outer loop
      vertex -0.5 2.9 1.8
      vertex -0.5 2.59021 2.1382
      vertex -0.5 2.6 2.2
    endloop
  endfacet
  facet normal -1 0 0
    outer loop
      vertex -0.5 2.9 1.8
      vertex -0.5 2.5618 2.08244
      vertex -0.5 2.59021 2.1382
    endloop
  endfacet
  facet normal -1 0 0
    outer loop
      vertex -0.5 2.9 1.8
      vertex -0.5 2.51756 2.0382
      vertex -0.5 2.5618 2.08244
    endloop
  endfacet
  facet normal -1 0 0
    outer loop
      vertex -0.5 2.9 1.8
      vertex -0.5 2.4618 2.00979
      vertex -0.5 2.51756 2.0382
    endloop
  endfacet
  facet normal -1 -0 0
    outer loop
      vertex -0.5 4.9 1.8
      vertex -0.5 1.9 0.9
      vertex -0.5 2.9 1.8
    endloop
  endfacet
  facet normal -1 0 -0
    outer loop
      vertex -0.5 2.4 2
      vertex -0.5 2.9 1.8
      vertex -0.5 1.9 0.9
    endloop
  endfacet
  facet normal -1 0 0
    outer loop
      vertex -0.5 2.9 1.8
      vertex -0.5 2.4 2
      vertex -0.5 2.4618 2.00979
    endloop
  endfacet
  facet normal -1 0 0
    outer loop
      vertex -0.5 1.9 2.6
      vertex -0.5 2.20979 2.1382
      vertex -0.5 1.9 0.9
    endloop
  endfacet
  facet normal -1 -0 0
    outer loop
      vertex -0.5 2.2382 2.08244
      vertex -0.5 1.9 0.9
      vertex -0.5 2.20979 2.1382
    endloop
  endfacet
  facet normal -1 -0 0
    outer loop
      vertex -0.5 2.28244 2.0382
      vertex -0.5 1.9 0.9
      vertex -0.5 2.2382 2.08244
    endloop
  endfacet
  facet normal -1 -0 0
    outer loop
      vertex -0.5 2.3382 2.00979
      vertex -0.5 1.9 0.9
      vertex -0.5 2.28244 2.0382
    endloop
  endfacet
  facet normal -1 -0 0
    outer loop
      vertex -0.5 2.4 2
      vertex -0.5 1.9 0.9
      vertex -0.5 2.3382 2.00979
    endloop
  endfacet
  facet normal -1 0 0
    outer loop
      vertex -0.5 1.15 0
      vertex -0.5 1.9 0.9
      vertex -0.5 6.65 0
    endloop
  endfacet
  facet normal -1 -0 0
    outer loop
      vertex -0.5 1.9 0.9
      vertex -0.5 1.15 0
      vertex -0.5 1.15 0.9
    endloop
  endfacet
  facet normal -1 0 0
    outer loop
      vertex -0.5 5.59021 2.2618
      vertex -0.5 5.9 2.6
      vertex -0.5 5.6 2.2
    endloop
  endfacet
  facet normal -1 0 0
    outer loop
      vertex -0.5 5.5618 2.31756
      vertex -0.5 5.9 2.6
      vertex -0.5 5.59021 2.2618
    endloop
  endfacet
  facet normal -1 0 0
    outer loop
      vertex -0.5 5.51756 2.3618
      vertex -0.5 5.9 2.6
      vertex -0.5 5.5618 2.31756
    endloop
  endfacet
  facet normal -1 0 0
    outer loop
      vertex -0.5 5.4618 2.39021
      vertex -0.5 5.9 2.6
      vertex -0.5 5.51756 2.3618
    endloop
  endfacet
  facet normal -1 0 0
    outer loop
      vertex -0.5 5.4 2.4
      vertex -0.5 5.9 2.6
      vertex -0.5 5.4618 2.39021
    endloop
  endfacet
  facet normal -1 0 0
    outer loop
      vertex -0.5 4.9 2.6
      vertex -0.5 5.4 2.4
      vertex -0.5 5.3382 2.39021
    endloop
  endfacet
  facet normal -1 0 0
    outer loop
      vertex -0.5 4.9 2.6
      vertex -0.5 5.2 2.2
      vertex -0.5 4.9 1.8
    endloop
  endfacet
  facet normal -1 0 0
    outer loop
      vertex -0.5 5.2 2.2
      vertex -0.5 4.9 2.6
      vertex -0.5 5.20979 2.2618
    endloop
  endfacet
  facet normal -1 0 0
    outer loop
      vertex -0.5 5.4 2.4
      vertex -0.5 4.9 2.6
      vertex -0.5 5.9 2.6
    endloop
  endfacet
  facet normal -1 0 0
    outer loop
      vertex -0.5 5.28244 2.3618
      vertex -0.5 4.9 2.6
      vertex -0.5 5.3382 2.39021
    endloop
  endfacet
  facet normal -1 0 0
    outer loop
      vertex -0.5 5.2382 2.31756
      vertex -0.5 4.9 2.6
      vertex -0.5 5.28244 2.3618
    endloop
  endfacet
  facet normal -1 0 0
    outer loop
      vertex -0.5 5.20979 2.2618
      vertex -0.5 4.9 2.6
      vertex -0.5 5.2382 2.31756
    endloop
  endfacet
  facet normal -1 0 0
    outer loop
      vertex -0.5 2.59021 2.2618
      vertex -0.5 2.9 2.6
      vertex -0.5 2.6 2.2
    endloop
  endfacet
  facet normal -1 0 0
    outer loop
      vertex -0.5 2.5618 2.31756
      vertex -0.5 2.9 2.6
      vertex -0.5 2.59021 2.2618
    endloop
  endfacet
  facet normal -1 0 0
    outer loop
      vertex -0.5 2.51756 2.3618
      vertex -0.5 2.9 2.6
      vertex -0.5 2.5618 2.31756
    endloop
  endfacet
  facet normal -1 0 0
    outer loop
      vertex -0.5 2.4618 2.39021
      vertex -0.5 2.9 2.6
      vertex -0.5 2.51756 2.3618
    endloop
  endfacet
  facet normal -1 0 0
    outer loop
      vertex -0.5 2.4 2.4
      vertex -0.5 2.9 2.6
      vertex -0.5 2.4618 2.39021
    endloop
  endfacet
  facet normal -1 0 0
    outer loop
      vertex -0.5 1.9 2.6
      vertex -0.5 2.4 2.4
      vertex -0.5 2.3382 2.39021
    endloop
  endfacet
  facet normal -1 0 0
    outer loop
      vertex -0.5 2.20979 2.1382
      vertex -0.5 1.9 2.6
      vertex -0.5 2.2 2.2
    endloop
  endfacet
  facet normal -1 0 0
    outer loop
      vertex -0.5 2.4 2.4
      vertex -0.5 1.9 2.6
      vertex -0.5 2.9 2.6
    endloop
  endfacet
  facet normal -1 0 0
    outer loop
      vertex -0.5 2.28244 2.3618
      vertex -0.5 1.9 2.6
      vertex -0.5 2.3382 2.39021
    endloop
  endfacet
  facet normal -1 0 0
    outer loop
      vertex -0.5 2.2382 2.31756
      vertex -0.5 1.9 2.6
      vertex -0.5 2.28244 2.3618
    endloop
  endfacet
  facet normal -1 0 0
    outer loop
      vertex -0.5 2.20979 2.2618
      vertex -0.5 1.9 2.6
      vertex -0.5 2.2382 2.31756
    endloop
  endfacet
  facet normal -1 0 0
    outer loop
      vertex -0.5 2.2 2.2
      vertex -0.5 1.9 2.6
      vertex -0.5 2.20979 2.2618
    endloop
  endfacet
  facet normal 1 0 0
    outer loop
      vertex 1.3 2.59021 2.1382
      vertex 1.3 2.9 2.6
      vertex 1.3 2.6 2.2
    endloop
  endfacet
  facet normal 1 0 0
    outer loop
      vertex 1.3 2.9 2.6
      vertex 1.3 2.59021 2.2618
      vertex 1.3 2.6 2.2
    endloop
  endfacet
  facet normal 1 0 0
    outer loop
      vertex 1.3 2.9 2.6
      vertex 1.3 2.5618 2.31756
      vertex 1.3 2.59021 2.2618
    endloop
  endfacet
  facet normal 1 0 0
    outer loop
      vertex 1.3 2.9 2.6
      vertex 1.3 2.51756 2.3618
      vertex 1.3 2.5618 2.31756
    endloop
  endfacet
  facet normal 1 0 0
    outer loop
      vertex 1.3 2.9 2.6
      vertex 1.3 2.4618 2.39021
      vertex 1.3 2.51756 2.3618
    endloop
  endfacet
  facet normal 1 0 0
    outer loop
      vertex 1.3 2.9 2.6
      vertex 1.3 2.4 2.4
      vertex 1.3 2.4618 2.39021
    endloop
  endfacet
  facet normal 1 -0 0
    outer loop
      vertex 1.3 1.9 2.6
      vertex 1.3 2.4 2.4
      vertex 1.3 2.9 2.6
    endloop
  endfacet
  facet normal 1 0 0
    outer loop
      vertex 1.3 2.20979 2.2618
      vertex 1.3 1.9 2.6
      vertex 1.3 2.2 2.2
    endloop
  endfacet
  facet normal 1 0 0
    outer loop
      vertex 1.3 2.2382 2.31756
      vertex 1.3 1.9 2.6
      vertex 1.3 2.20979 2.2618
    endloop
  endfacet
  facet normal 1 0 0
    outer loop
      vertex 1.3 2.28244 2.3618
      vertex 1.3 1.9 2.6
      vertex 1.3 2.2382 2.31756
    endloop
  endfacet
  facet normal 1 0 0
    outer loop
      vertex 1.3 2.3382 2.39021
      vertex 1.3 1.9 2.6
      vertex 1.3 2.28244 2.3618
    endloop
  endfacet
  facet normal 1 0 0
    outer loop
      vertex 1.3 2.4 2.4
      vertex 1.3 1.9 2.6
      vertex 1.3 2.3382 2.39021
    endloop
  endfacet
  facet normal 1 0 0
    outer loop
      vertex 1.3 5.59021 2.1382
      vertex 1.3 5.9 2.6
      vertex 1.3 5.6 2.2
    endloop
  endfacet
  facet normal 1 0 0
    outer loop
      vertex 1.3 5.9 2.6
      vertex 1.3 5.59021 2.2618
      vertex 1.3 5.6 2.2
    endloop
  endfacet
  facet normal 1 0 0
    outer loop
      vertex 1.3 5.9 2.6
      vertex 1.3 5.5618 2.31756
      vertex 1.3 5.59021 2.2618
    endloop
  endfacet
  facet normal 1 0 0
    outer loop
      vertex 1.3 5.9 2.6
      vertex 1.3 5.51756 2.3618
      vertex 1.3 5.5618 2.31756
    endloop
  endfacet
  facet normal 1 0 0
    outer loop
      vertex 1.3 5.9 2.6
      vertex 1.3 5.4618 2.39021
      vertex 1.3 5.51756 2.3618
    endloop
  endfacet
  facet normal 1 0 0
    outer loop
      vertex 1.3 5.9 2.6
      vertex 1.3 5.4 2.4
      vertex 1.3 5.4618 2.39021
    endloop
  endfacet
  facet normal 1 -0 0
    outer loop
      vertex 1.3 4.9 2.6
      vertex 1.3 5.4 2.4
      vertex 1.3 5.9 2.6
    endloop
  endfacet
  facet normal 1 0 0
    outer loop
      vertex 1.3 5.20979 2.2618
      vertex 1.3 4.9 2.6
      vertex 1.3 5.2 2.2
    endloop
  endfacet
  facet normal 1 0 0
    outer loop
      vertex 1.3 5.2382 2.31756
      vertex 1.3 4.9 2.6
      vertex 1.3 5.20979 2.2618
    endloop
  endfacet
  facet normal 1 0 0
    outer loop
      vertex 1.3 5.28244 2.3618
      vertex 1.3 4.9 2.6
      vertex 1.3 5.2382 2.31756
    endloop
  endfacet
  facet normal 1 0 0
    outer loop
      vertex 1.3 5.3382 2.39021
      vertex 1.3 4.9 2.6
      vertex 1.3 5.28244 2.3618
    endloop
  endfacet
  facet normal 1 0 0
    outer loop
      vertex 1.3 5.4 2.4
      vertex 1.3 4.9 2.6
      vertex 1.3 5.3382 2.39021
    endloop
  endfacet
  facet normal 1 -0 0
    outer loop
      vertex 1.3 5.9 0.9
      vertex 1.3 6.65 0
      vertex 1.3 6.65 0.9
    endloop
  endfacet
  facet normal 1 0 0
    outer loop
      vertex 1.3 5.9 2.6
      vertex 1.3 5.59021 2.1382
      vertex 1.3 5.9 0.9
    endloop
  endfacet
  facet normal 1 -0 0
    outer loop
      vertex 1.3 5.5618 2.08244
      vertex 1.3 5.9 0.9
      vertex 1.3 5.59021 2.1382
    endloop
  endfacet
  facet normal 1 -0 0
    outer loop
      vertex 1.3 5.51756 2.0382
      vertex 1.3 5.9 0.9
      vertex 1.3 5.5618 2.08244
    endloop
  endfacet
  facet normal 1 -0 0
    outer loop
      vertex 1.3 5.4618 2.00979
      vertex 1.3 5.9 0.9
      vertex 1.3 5.51756 2.0382
    endloop
  endfacet
  facet normal 1 -0 0
    outer loop
      vertex 1.3 5.4 2
      vertex 1.3 5.9 0.9
      vertex 1.3 5.4618 2.00979
    endloop
  endfacet
  facet normal 1 0 0
    outer loop
      vertex 1.3 4.9 0.9
      vertex 1.3 5.4 2
      vertex 1.3 5.3382 2.00979
    endloop
  endfacet
  facet normal 1 0 0
    outer loop
      vertex 1.3 4.9 0.9
      vertex 1.3 5.3382 2.00979
      vertex 1.3 5.28244 2.0382
    endloop
  endfacet
  facet normal 1 0 0
    outer loop
      vertex 1.3 4.9 0.9
      vertex 1.3 5.28244 2.0382
      vertex 1.3 5.2382 2.08244
    endloop
  endfacet
  facet normal 1 0 0
    outer loop
      vertex 1.3 4.9 2.6
      vertex 1.3 5.20979 2.1382
      vertex 1.3 5.2 2.2
    endloop
  endfacet
  facet normal 1 0 0
    outer loop
      vertex 1.3 4.9 0.9
      vertex 1.3 5.20979 2.1382
      vertex 1.3 4.9 2.6
    endloop
  endfacet
  facet normal 1 0 0
    outer loop
      vertex 1.3 5.20979 2.1382
      vertex 1.3 4.9 0.9
      vertex 1.3 5.2382 2.08244
    endloop
  endfacet
  facet normal 1 0 0
    outer loop
      vertex 1.3 5.4 2
      vertex 1.3 4.9 0.9
      vertex 1.3 5.9 0.9
    endloop
  endfacet
  facet normal 1 -0 0
    outer loop
      vertex 1.3 4.9 0.9
      vertex 1.3 6.65 0
      vertex 1.3 5.9 0.9
    endloop
  endfacet
  facet normal 1 -0 0
    outer loop
      vertex 1.3 2.9 0.9
      vertex 1.3 6.65 0
      vertex 1.3 4.9 0.9
    endloop
  endfacet
  facet normal 1 0 0
    outer loop
      vertex 1.3 2.9 2.6
      vertex 1.3 2.59021 2.1382
      vertex 1.3 2.9 0.9
    endloop
  endfacet
  facet normal 1 -0 0
    outer loop
      vertex 1.3 2.5618 2.08244
      vertex 1.3 2.9 0.9
      vertex 1.3 2.59021 2.1382
    endloop
  endfacet
  facet normal 1 -0 0
    outer loop
      vertex 1.3 2.51756 2.0382
      vertex 1.3 2.9 0.9
      vertex 1.3 2.5618 2.08244
    endloop
  endfacet
  facet normal 1 -0 0
    outer loop
      vertex 1.3 2.4618 2.00979
      vertex 1.3 2.9 0.9
      vertex 1.3 2.51756 2.0382
    endloop
  endfacet
  facet normal 1 -0 0
    outer loop
      vertex 1.3 2.4 2
      vertex 1.3 2.9 0.9
      vertex 1.3 2.4618 2.00979
    endloop
  endfacet
  facet normal 1 0 0
    outer loop
      vertex 1.3 1.9 0.9
      vertex 1.3 2.4 2
      vertex 1.3 2.3382 2.00979
    endloop
  endfacet
  facet normal 1 0 0
    outer loop
      vertex 1.3 1.9 0.9
      vertex 1.3 2.3382 2.00979
      vertex 1.3 2.28244 2.0382
    endloop
  endfacet
  facet normal 1 0 0
    outer loop
      vertex 1.3 1.9 0.9
      vertex 1.3 2.28244 2.0382
      vertex 1.3 2.2382 2.08244
    endloop
  endfacet
  facet normal 1 0 0
    outer loop
      vertex 1.3 1.9 2.6
      vertex 1.3 2.20979 2.1382
      vertex 1.3 2.2 2.2
    endloop
  endfacet
  facet normal 1 0 0
    outer loop
      vertex 1.3 1.9 0.9
      vertex 1.3 2.20979 2.1382
      vertex 1.3 1.9 2.6
    endloop
  endfacet
  facet normal 1 0 0
    outer loop
      vertex 1.3 2.20979 2.1382
      vertex 1.3 1.9 0.9
      vertex 1.3 2.2382 2.08244
    endloop
  endfacet
  facet normal 1 0 0
    outer loop
      vertex 1.3 2.4 2
      vertex 1.3 1.9 0.9
      vertex 1.3 2.9 0.9
    endloop
  endfacet
  facet normal 1 0 0
    outer loop
      vertex 1.3 1.15 0
      vertex 1.3 2.9 0.9
      vertex 1.3 1.9 0.9
    endloop
  endfacet
  facet normal 1 0 0
    outer loop
      vertex 1.3 1.15 0
      vertex 1.3 1.9 0.9
      vertex 1.3 1.15 0.9
    endloop
  endfacet
  facet normal 1 0 0
    outer loop
      vertex 1.3 2.9 0.9
      vertex 1.3 1.15 0
      vertex 1.3 6.65 0
    endloop
  endfacet
  facet normal 0 1 -0
    outer loop
      vertex 1.3 6.65 0
      vertex 0.9 6.65 0.9
      vertex 1.3 6.65 0.9
    endloop
  endfacet
  facet normal 0 1 0
    outer loop
      vertex 0.9 6.65 0.9
      vertex 1.3 6.65 0
      vertex 0.9 6.65 0
    endloop
  endfacet
  facet normal 0 1 -0
    outer loop
      vertex 0 6.65 0
      vertex -0.5 6.65 0.9
      vertex 0 6.65 0.9
    endloop
  endfacet
  facet normal 0 1 0
    outer loop
      vertex -0.5 6.65 0.9
      vertex 0 6.65 0
      vertex -0.5 6.65 0
    endloop
  endfacet
  facet normal 0 -1 0
    outer loop
      vertex -0.5 1.15 0
      vertex 0 1.15 0.9
      vertex -0.5 1.15 0.9
    endloop
  endfacet
  facet normal 0 -1 -0
    outer loop
      vertex 0 1.15 0.9
      vertex -0.5 1.15 0
      vertex 0 1.15 0
    endloop
  endfacet
  facet normal 0 -1 0
    outer loop
      vertex 0.9 1.15 0
      vertex 1.3 1.15 0.9
      vertex 0.9 1.15 0.9
    endloop
  endfacet
  facet normal 0 -1 -0
    outer loop
      vertex 1.3 1.15 0.9
      vertex 0.9 1.15 0
      vertex 1.3 1.15 0
    endloop
  endfacet
  facet normal -0 0 1
    outer loop
      vertex -0.5 4.9 1.8
      vertex 0.299999 2.9 1.8
      vertex 0.299999 4.9 1.8
    endloop
  endfacet
  facet normal 0 0 1
    outer loop
      vertex 0.299999 2.9 1.8
      vertex -0.5 4.9 1.8
      vertex -0.5 2.9 1.8
    endloop
  endfacet
  facet normal 1 0 0
    outer loop
      vertex 0.299999 2.9 2.6
      vertex 0.299999 2.6 2.2
      vertex 0.299999 2.9 1.8
    endloop
  endfacet
  facet normal 1 0 0
    outer loop
      vertex 0.299999 2.9 2.6
      vertex 0.299999 2.59021 2.2618
      vertex 0.299999 2.6 2.2
    endloop
  endfacet
  facet normal 1 0 0
    outer loop
      vertex 0.299999 2.9 2.6
      vertex 0.299999 2.5618 2.31756
      vertex 0.299999 2.59021 2.2618
    endloop
  endfacet
  facet normal 1 0 0
    outer loop
      vertex 0.299999 2.9 2.6
      vertex 0.299999 2.51756 2.3618
      vertex 0.299999 2.5618 2.31756
    endloop
  endfacet
  facet normal 1 0 0
    outer loop
      vertex 0.299999 2.9 2.6
      vertex 0.299999 2.4618 2.39021
      vertex 0.299999 2.51756 2.3618
    endloop
  endfacet
  facet normal 1 0 0
    outer loop
      vertex 0.299999 2.9 2.6
      vertex 0.299999 2.4 2.4
      vertex 0.299999 2.4618 2.39021
    endloop
  endfacet
  facet normal 1 -0 0
    outer loop
      vertex 0.299999 1.9 2.6
      vertex 0.299999 2.4 2.4
      vertex 0.299999 2.9 2.6
    endloop
  endfacet
  facet normal 1 0 0
    outer loop
      vertex 0.299999 2.20979 2.2618
      vertex 0.299999 1.9 2.6
      vertex 0.299999 2.2 2.2
    endloop
  endfacet
  facet normal 1 0 0
    outer loop
      vertex 0.299999 2.2382 2.31756
      vertex 0.299999 1.9 2.6
      vertex 0.299999 2.20979 2.2618
    endloop
  endfacet
  facet normal 1 0 0
    outer loop
      vertex 0.299999 2.28244 2.3618
      vertex 0.299999 1.9 2.6
      vertex 0.299999 2.2382 2.31756
    endloop
  endfacet
  facet normal 1 0 0
    outer loop
      vertex 0.299999 2.3382 2.39021
      vertex 0.299999 1.9 2.6
      vertex 0.299999 2.28244 2.3618
    endloop
  endfacet
  facet normal 1 0 0
    outer loop
      vertex 0.299999 2.4 2.4
      vertex 0.299999 1.9 2.6
      vertex 0.299999 2.3382 2.39021
    endloop
  endfacet
  facet normal 1 0 0
    outer loop
      vertex 0.299999 5.59021 2.1382
      vertex 0.299999 5.9 2.6
      vertex 0.299999 5.6 2.2
    endloop
  endfacet
  facet normal 1 0 0
    outer loop
      vertex 0.299999 5.9 2.6
      vertex 0.299999 5.59021 2.2618
      vertex 0.299999 5.6 2.2
    endloop
  endfacet
  facet normal 1 0 0
    outer loop
      vertex 0.299999 5.9 2.6
      vertex 0.299999 5.5618 2.31756
      vertex 0.299999 5.59021 2.2618
    endloop
  endfacet
  facet normal 1 0 0
    outer loop
      vertex 0.299999 5.9 2.6
      vertex 0.299999 5.51756 2.3618
      vertex 0.299999 5.5618 2.31756
    endloop
  endfacet
  facet normal 1 0 0
    outer loop
      vertex 0.299999 5.9 2.6
      vertex 0.299999 5.4618 2.39021
      vertex 0.299999 5.51756 2.3618
    endloop
  endfacet
  facet normal 1 0 0
    outer loop
      vertex 0.299999 5.9 2.6
      vertex 0.299999 5.4 2.4
      vertex 0.299999 5.4618 2.39021
    endloop
  endfacet
  facet normal 1 -0 0
    outer loop
      vertex 0.299999 4.9 2.6
      vertex 0.299999 5.4 2.4
      vertex 0.299999 5.9 2.6
    endloop
  endfacet
  facet normal 1 0 0
    outer loop
      vertex 0.299999 5.20979 2.2618
      vertex 0.299999 4.9 2.6
      vertex 0.299999 5.2 2.2
    endloop
  endfacet
  facet normal 1 0 0
    outer loop
      vertex 0.299999 5.2382 2.31756
      vertex 0.299999 4.9 2.6
      vertex 0.299999 5.20979 2.2618
    endloop
  endfacet
  facet normal 1 0 0
    outer loop
      vertex 0.299999 5.28244 2.3618
      vertex 0.299999 4.9 2.6
      vertex 0.299999 5.2382 2.31756
    endloop
  endfacet
  facet normal 1 0 0
    outer loop
      vertex 0.299999 5.3382 2.39021
      vertex 0.299999 4.9 2.6
      vertex 0.299999 5.28244 2.3618
    endloop
  endfacet
  facet normal 1 0 0
    outer loop
      vertex 0.299999 5.4 2.4
      vertex 0.299999 4.9 2.6
      vertex 0.299999 5.3382 2.39021
    endloop
  endfacet
  facet normal 1 0 0
    outer loop
      vertex 0.299999 5.9 2.6
      vertex 0.299999 5.59021 2.1382
      vertex 0.299999 5.9 0.9
    endloop
  endfacet
  facet normal 1 -0 0
    outer loop
      vertex 0.299999 5.5618 2.08244
      vertex 0.299999 5.9 0.9
      vertex 0.299999 5.59021 2.1382
    endloop
  endfacet
  facet normal 1 -0 0
    outer loop
      vertex 0.299999 5.51756 2.0382
      vertex 0.299999 5.9 0.9
      vertex 0.299999 5.5618 2.08244
    endloop
  endfacet
  facet normal 1 -0 0
    outer loop
      vertex 0.299999 5.4618 2.00979
      vertex 0.299999 5.9 0.9
      vertex 0.299999 5.51756 2.0382
    endloop
  endfacet
  facet normal 1 -0 0
    outer loop
      vertex 0.299999 5.4 2
      vertex 0.299999 5.9 0.9
      vertex 0.299999 5.4618 2.00979
    endloop
  endfacet
  facet normal 1 0 0
    outer loop
      vertex 0.299999 4.9 1.8
      vertex 0.299999 5.4 2
      vertex 0.299999 5.3382 2.00979
    endloop
  endfacet
  facet normal 1 0 0
    outer loop
      vertex 0.299999 4.9 1.8
      vertex 0.299999 5.3382 2.00979
      vertex 0.299999 5.28244 2.0382
    endloop
  endfacet
  facet normal 1 0 0
    outer loop
      vertex 0.299999 4.9 1.8
      vertex 0.299999 5.28244 2.0382
      vertex 0.299999 5.2382 2.08244
    endloop
  endfacet
  facet normal 1 0 0
    outer loop
      vertex 0.299999 4.9 1.8
      vertex 0.299999 5.2 2.2
      vertex 0.299999 4.9 2.6
    endloop
  endfacet
  facet normal 1 0 0
    outer loop
      vertex 0.299999 5.2 2.2
      vertex 0.299999 4.9 1.8
      vertex 0.299999 5.20979 2.1382
    endloop
  endfacet
  facet normal 1 0 0
    outer loop
      vertex 0.299999 5.20979 2.1382
      vertex 0.299999 4.9 1.8
      vertex 0.299999 5.2382 2.08244
    endloop
  endfacet
  facet normal 1 0 0
    outer loop
      vertex 0.299999 5.4 2
      vertex 0.299999 4.9 1.8
      vertex 0.299999 5.9 0.9
    endloop
  endfacet
  facet normal 1 -0 0
    outer loop
      vertex 0.299999 2.9 1.8
      vertex 0.299999 5.9 0.9
      vertex 0.299999 4.9 1.8
    endloop
  endfacet
  facet normal 1 -0 0
    outer loop
      vertex 0.299999 2.59021 2.1382
      vertex 0.299999 2.9 1.8
      vertex 0.299999 2.6 2.2
    endloop
  endfacet
  facet normal 1 -0 0
    outer loop
      vertex 0.299999 2.5618 2.08244
      vertex 0.299999 2.9 1.8
      vertex 0.299999 2.59021 2.1382
    endloop
  endfacet
  facet normal 1 -0 0
    outer loop
      vertex 0.299999 2.51756 2.0382
      vertex 0.299999 2.9 1.8
      vertex 0.299999 2.5618 2.08244
    endloop
  endfacet
  facet normal 1 -0 0
    outer loop
      vertex 0.299999 2.4618 2.00979
      vertex 0.299999 2.9 1.8
      vertex 0.299999 2.51756 2.0382
    endloop
  endfacet
  facet normal 1 -0 0
    outer loop
      vertex 0.299999 2.4 2
      vertex 0.299999 2.9 1.8
      vertex 0.299999 2.4618 2.00979
    endloop
  endfacet
  facet normal 1 0 0
    outer loop
      vertex 0.299999 1.9 0.9
      vertex 0.299999 2.4 2
      vertex 0.299999 2.3382 2.00979
    endloop
  endfacet
  facet normal 1 0 0
    outer loop
      vertex 0.299999 1.9 2.6
      vertex 0.299999 2.20979 2.1382
      vertex 0.299999 2.2 2.2
    endloop
  endfacet
  facet normal 1 0 0
    outer loop
      vertex 0.299999 1.9 0.9
      vertex 0.299999 2.20979 2.1382
      vertex 0.299999 1.9 2.6
    endloop
  endfacet
  facet normal 1 0 0
    outer loop
      vertex 0.299999 2.9 1.8
      vertex 0.299999 1.9 0.9
      vertex 0.299999 5.9 0.9
    endloop
  endfacet
  facet normal 1 0 0
    outer loop
      vertex 0.299999 2.4 2
      vertex 0.299999 1.9 0.9
      vertex 0.299999 2.9 1.8
    endloop
  endfacet
  facet normal 1 0 0
    outer loop
      vertex 0.299999 2.28244 2.0382
      vertex 0.299999 1.9 0.9
      vertex 0.299999 2.3382 2.00979
    endloop
  endfacet
  facet normal 1 0 0
    outer loop
      vertex 0.299999 2.2382 2.08244
      vertex 0.299999 1.9 0.9
      vertex 0.299999 2.28244 2.0382
    endloop
  endfacet
  facet normal 1 0 0
    outer loop
      vertex 0.299999 2.20979 2.1382
      vertex 0.299999 1.9 0.9
      vertex 0.299999 2.2382 2.08244
    endloop
  endfacet
  facet normal 0 -1 0
    outer loop
      vertex -0.5 1.9 0.9
      vertex 0.299999 1.9 2.6
      vertex -0.5 1.9 2.6
    endloop
  endfacet
  facet normal 0 -1 -0
    outer loop
      vertex 0.299999 1.9 2.6
      vertex -0.5 1.9 0.9
      vertex 0.299999 1.9 0.9
    endloop
  endfacet
  facet normal 0 1 -0
    outer loop
      vertex 0.299999 5.9 0.9
      vertex -0.5 5.9 2.6
      vertex 0.299999 5.9 2.6
    endloop
  endfacet
  facet normal 0 1 0
    outer loop
      vertex -0.5 5.9 2.6
      vertex 0.299999 5.9 0.9
      vertex -0.5 5.9 0.9
    endloop
  endfacet
  facet normal -0 0 1
    outer loop
      vertex -0.5 2.9 2.6
      vertex 0.299999 1.9 2.6
      vertex 0.299999 2.9 2.6
    endloop
  endfacet
  facet normal 0 0 1
    outer loop
      vertex 0.299999 1.9 2.6
      vertex -0.5 2.9 2.6
      vertex -0.5 1.9 2.6
    endloop
  endfacet
  facet normal 0 1 -0
    outer loop
      vertex 0.299999 2.9 1.8
      vertex -0.5 2.9 2.6
      vertex 0.299999 2.9 2.6
    endloop
  endfacet
  facet normal 0 1 0
    outer loop
      vertex -0.5 2.9 2.6
      vertex 0.299999 2.9 1.8
      vertex -0.5 2.9 1.8
    endloop
  endfacet
  facet normal -0 0 1
    outer loop
      vertex -0.5 5.9 2.6
      vertex 0.299999 4.9 2.6
      vertex 0.299999 5.9 2.6
    endloop
  endfacet
  facet normal 0 0 1
    outer loop
      vertex 0.299999 4.9 2.6
      vertex -0.5 5.9 2.6
      vertex -0.5 4.9 2.6
    endloop
  endfacet
  facet normal 0 -1 0
    outer loop
      vertex -0.5 4.9 1.8
      vertex 0.299999 4.9 2.6
      vertex -0.5 4.9 2.6
    endloop
  endfacet
  facet normal 0 -1 -0
    outer loop
      vertex 0.299999 4.9 2.6
      vertex -0.5 4.9 1.8
      vertex 0.299999 4.9 1.8
    endloop
  endfacet
  facet normal -1 0 0
    outer loop
      vertex 0.5 2.59021 2.1382
      vertex 0.5 2.9 2.6
      vertex 0.5 2.9 0.9
    endloop
  endfacet
  facet normal -1 0 0
    outer loop
      vertex 0.5 2.9 2.6
      vertex 0.5 2.59021 2.1382
      vertex 0.5 2.6 2.2
    endloop
  endfacet
  facet normal -1 0 0
    outer loop
      vertex 0.5 2.9 0.9
      vertex 0.5 2.5618 2.08244
      vertex 0.5 2.59021 2.1382
    endloop
  endfacet
  facet normal -1 0 0
    outer loop
      vertex 0.5 2.9 0.9
      vertex 0.5 2.51756 2.0382
      vertex 0.5 2.5618 2.08244
    endloop
  endfacet
  facet normal -1 0 0
    outer loop
      vertex 0.5 2.9 0.9
      vertex 0.5 2.4618 2.00979
      vertex 0.5 2.51756 2.0382
    endloop
  endfacet
  facet normal -1 0 0
    outer loop
      vertex 0.5 2.9 0.9
      vertex 0.5 2.4 2
      vertex 0.5 2.4618 2.00979
    endloop
  endfacet
  facet normal -1 0 0
    outer loop
      vertex 0.5 1.9 0.9
      vertex 0.5 2.4 2
      vertex 0.5 2.9 0.9
    endloop
  endfacet
  facet normal -1 -0 0
    outer loop
      vertex 0.5 2.4 2
      vertex 0.5 1.9 0.9
      vertex 0.5 2.3382 2.00979
    endloop
  endfacet
  facet normal -1 -0 0
    outer loop
      vertex 0.5 2.3382 2.00979
      vertex 0.5 1.9 0.9
      vertex 0.5 2.28244 2.0382
    endloop
  endfacet
  facet normal -1 0 0
    outer loop
      vertex 0.5 1.9 2.6
      vertex 0.5 2.20979 2.1382
      vertex 0.5 1.9 0.9
    endloop
  endfacet
  facet normal -1 -0 0
    outer loop
      vertex 0.5 2.2382 2.08244
      vertex 0.5 1.9 0.9
      vertex 0.5 2.20979 2.1382
    endloop
  endfacet
  facet normal -1 -0 0
    outer loop
      vertex 0.5 2.28244 2.0382
      vertex 0.5 1.9 0.9
      vertex 0.5 2.2382 2.08244
    endloop
  endfacet
  facet normal -1 0 0
    outer loop
      vertex 0.5 2.59021 2.2618
      vertex 0.5 2.9 2.6
      vertex 0.5 2.6 2.2
    endloop
  endfacet
  facet normal -1 0 0
    outer loop
      vertex 0.5 2.5618 2.31756
      vertex 0.5 2.9 2.6
      vertex 0.5 2.59021 2.2618
    endloop
  endfacet
  facet normal -1 0 0
    outer loop
      vertex 0.5 2.51756 2.3618
      vertex 0.5 2.9 2.6
      vertex 0.5 2.5618 2.31756
    endloop
  endfacet
  facet normal -1 0 0
    outer loop
      vertex 0.5 2.4618 2.39021
      vertex 0.5 2.9 2.6
      vertex 0.5 2.51756 2.3618
    endloop
  endfacet
  facet normal -1 0 0
    outer loop
      vertex 0.5 2.4 2.4
      vertex 0.5 2.9 2.6
      vertex 0.5 2.4618 2.39021
    endloop
  endfacet
  facet normal -1 0 0
    outer loop
      vertex 0.5 1.9 2.6
      vertex 0.5 2.4 2.4
      vertex 0.5 2.3382 2.39021
    endloop
  endfacet
  facet normal -1 0 0
    outer loop
      vertex 0.5 2.20979 2.1382
      vertex 0.5 1.9 2.6
      vertex 0.5 2.2 2.2
    endloop
  endfacet
  facet normal -1 0 0
    outer loop
      vertex 0.5 2.4 2.4
      vertex 0.5 1.9 2.6
      vertex 0.5 2.9 2.6
    endloop
  endfacet
  facet normal -1 0 0
    outer loop
      vertex 0.5 2.28244 2.3618
      vertex 0.5 1.9 2.6
      vertex 0.5 2.3382 2.39021
    endloop
  endfacet
  facet normal -1 0 0
    outer loop
      vertex 0.5 2.2382 2.31756
      vertex 0.5 1.9 2.6
      vertex 0.5 2.28244 2.3618
    endloop
  endfacet
  facet normal -1 0 0
    outer loop
      vertex 0.5 2.20979 2.2618
      vertex 0.5 1.9 2.6
      vertex 0.5 2.2382 2.31756
    endloop
  endfacet
  facet normal -1 0 0
    outer loop
      vertex 0.5 2.2 2.2
      vertex 0.5 1.9 2.6
      vertex 0.5 2.20979 2.2618
    endloop
  endfacet
  facet normal -0 0 1
    outer loop
      vertex 0.5 2.9 2.6
      vertex 1.3 1.9 2.6
      vertex 1.3 2.9 2.6
    endloop
  endfacet
  facet normal 0 0 1
    outer loop
      vertex 1.3 1.9 2.6
      vertex 0.5 2.9 2.6
      vertex 0.5 1.9 2.6
    endloop
  endfacet
  facet normal 0 1 -0
    outer loop
      vertex 1.3 2.9 0.9
      vertex 0.5 2.9 2.6
      vertex 1.3 2.9 2.6
    endloop
  endfacet
  facet normal 0 1 0
    outer loop
      vertex 0.5 2.9 2.6
      vertex 1.3 2.9 0.9
      vertex 0.5 2.9 0.9
    endloop
  endfacet
  facet normal 0 -1 0
    outer loop
      vertex 0.5 1.9 0.9
      vertex 1.3 1.9 2.6
      vertex 0.5 1.9 2.6
    endloop
  endfacet
  facet normal 0 -1 -0
    outer loop
      vertex 1.3 1.9 2.6
      vertex 0.5 1.9 0.9
      vertex 1.3 1.9 0.9
    endloop
  endfacet
  facet normal -1 0 0
    outer loop
      vertex 0.5 5.59021 2.1382
      vertex 0.5 5.9 2.6
      vertex 0.5 5.9 0.9
    endloop
  endfacet
  facet normal -1 0 0
    outer loop
      vertex 0.5 5.9 2.6
      vertex 0.5 5.59021 2.1382
      vertex 0.5 5.6 2.2
    endloop
  endfacet
  facet normal -1 0 0
    outer loop
      vertex 0.5 5.9 0.9
      vertex 0.5 5.5618 2.08244
      vertex 0.5 5.59021 2.1382
    endloop
  endfacet
  facet normal -1 0 0
    outer loop
      vertex 0.5 5.9 0.9
      vertex 0.5 5.51756 2.0382
      vertex 0.5 5.5618 2.08244
    endloop
  endfacet
  facet normal -1 0 0
    outer loop
      vertex 0.5 5.9 0.9
      vertex 0.5 5.4618 2.00979
      vertex 0.5 5.51756 2.0382
    endloop
  endfacet
  facet normal -1 0 0
    outer loop
      vertex 0.5 5.9 0.9
      vertex 0.5 5.4 2
      vertex 0.5 5.4618 2.00979
    endloop
  endfacet
  facet normal -1 0 0
    outer loop
      vertex 0.5 4.9 0.9
      vertex 0.5 5.4 2
      vertex 0.5 5.9 0.9
    endloop
  endfacet
  facet normal -1 -0 0
    outer loop
      vertex 0.5 5.4 2
      vertex 0.5 4.9 0.9
      vertex 0.5 5.3382 2.00979
    endloop
  endfacet
  facet normal -1 -0 0
    outer loop
      vertex 0.5 5.3382 2.00979
      vertex 0.5 4.9 0.9
      vertex 0.5 5.28244 2.0382
    endloop
  endfacet
  facet normal -1 0 0
    outer loop
      vertex 0.5 4.9 2.6
      vertex 0.5 5.20979 2.1382
      vertex 0.5 4.9 0.9
    endloop
  endfacet
  facet normal -1 -0 0
    outer loop
      vertex 0.5 5.2382 2.08244
      vertex 0.5 4.9 0.9
      vertex 0.5 5.20979 2.1382
    endloop
  endfacet
  facet normal -1 -0 0
    outer loop
      vertex 0.5 5.28244 2.0382
      vertex 0.5 4.9 0.9
      vertex 0.5 5.2382 2.08244
    endloop
  endfacet
  facet normal -1 0 0
    outer loop
      vertex 0.5 5.59021 2.2618
      vertex 0.5 5.9 2.6
      vertex 0.5 5.6 2.2
    endloop
  endfacet
  facet normal -1 0 0
    outer loop
      vertex 0.5 5.5618 2.31756
      vertex 0.5 5.9 2.6
      vertex 0.5 5.59021 2.2618
    endloop
  endfacet
  facet normal -1 0 0
    outer loop
      vertex 0.5 5.51756 2.3618
      vertex 0.5 5.9 2.6
      vertex 0.5 5.5618 2.31756
    endloop
  endfacet
  facet normal -1 0 0
    outer loop
      vertex 0.5 5.4618 2.39021
      vertex 0.5 5.9 2.6
      vertex 0.5 5.51756 2.3618
    endloop
  endfacet
  facet normal -1 0 0
    outer loop
      vertex 0.5 5.4 2.4
      vertex 0.5 5.9 2.6
      vertex 0.5 5.4618 2.39021
    endloop
  endfacet
  facet normal -1 0 0
    outer loop
      vertex 0.5 4.9 2.6
      vertex 0.5 5.4 2.4
      vertex 0.5 5.3382 2.39021
    endloop
  endfacet
  facet normal -1 0 0
    outer loop
      vertex 0.5 5.20979 2.1382
      vertex 0.5 4.9 2.6
      vertex 0.5 5.2 2.2
    endloop
  endfacet
  facet normal -1 0 0
    outer loop
      vertex 0.5 5.4 2.4
      vertex 0.5 4.9 2.6
      vertex 0.5 5.9 2.6
    endloop
  endfacet
  facet normal -1 0 0
    outer loop
      vertex 0.5 5.28244 2.3618
      vertex 0.5 4.9 2.6
      vertex 0.5 5.3382 2.39021
    endloop
  endfacet
  facet normal -1 0 0
    outer loop
      vertex 0.5 5.2382 2.31756
      vertex 0.5 4.9 2.6
      vertex 0.5 5.28244 2.3618
    endloop
  endfacet
  facet normal -1 0 0
    outer loop
      vertex 0.5 5.20979 2.2618
      vertex 0.5 4.9 2.6
      vertex 0.5 5.2382 2.31756
    endloop
  endfacet
  facet normal -1 0 0
    outer loop
      vertex 0.5 5.2 2.2
      vertex 0.5 4.9 2.6
      vertex 0.5 5.20979 2.2618
    endloop
  endfacet
  facet normal -0 0 1
    outer loop
      vertex 0.5 5.9 2.6
      vertex 1.3 4.9 2.6
      vertex 1.3 5.9 2.6
    endloop
  endfacet
  facet normal 0 0 1
    outer loop
      vertex 1.3 4.9 2.6
      vertex 0.5 5.9 2.6
      vertex 0.5 4.9 2.6
    endloop
  endfacet
  facet normal 0 1 -0
    outer loop
      vertex 1.3 5.9 0.9
      vertex 0.5 5.9 2.6
      vertex 1.3 5.9 2.6
    endloop
  endfacet
  facet normal 0 1 0
    outer loop
      vertex 0.5 5.9 2.6
      vertex 1.3 5.9 0.9
      vertex 0.5 5.9 0.9
    endloop
  endfacet
  facet normal 0 -1 0
    outer loop
      vertex 0.5 4.9 0.9
      vertex 1.3 4.9 2.6
      vertex 0.5 4.9 2.6
    endloop
  endfacet
  facet normal 0 -1 -0
    outer loop
      vertex 1.3 4.9 2.6
      vertex 0.5 4.9 0.9
      vertex 1.3 4.9 0.9
    endloop
  endfacet
  facet normal -0.987689 -0.156433 0
    outer loop
      vertex 0.65 0.45 0
      vertex 0.640211 0.511803 0.9
      vertex 0.640211 0.511803 0
    endloop
  endfacet
  facet normal -0.987689 -0.156433 0
    outer loop
      vertex 0.640211 0.511803 0.9
      vertex 0.65 0.45 0
      vertex 0.65 0.45 0.9
    endloop
  endfacet
  facet normal 0.156431 -0.987689 0
    outer loop
      vertex 0.388196 0.640211 0
      vertex 0.45 0.65 0.9
      vertex 0.388196 0.640211 0.9
    endloop
  endfacet
  facet normal 0.156431 -0.987689 0
    outer loop
      vertex 0.45 0.65 0.9
      vertex 0.388196 0.640211 0
      vertex 0.45 0.65 0
    endloop
  endfacet
  facet normal 0.453992 0.891006 -0
    outer loop
      vertex 0.388196 0.259789 0
      vertex 0.332442 0.288197 0.9
      vertex 0.388196 0.259789 0.9
    endloop
  endfacet
  facet normal 0.453992 0.891006 0
    outer loop
      vertex 0.332442 0.288197 0.9
      vertex 0.388196 0.259789 0
      vertex 0.332442 0.288197 0
    endloop
  endfacet
  facet normal -0.453992 -0.891006 0
    outer loop
      vertex 0.511803 0.640211 0
      vertex 0.567556 0.611803 0.9
      vertex 0.511803 0.640211 0.9
    endloop
  endfacet
  facet normal -0.453992 -0.891006 -0
    outer loop
      vertex 0.567556 0.611803 0.9
      vertex 0.511803 0.640211 0
      vertex 0.567556 0.611803 0
    endloop
  endfacet
  facet normal -0.891006 -0.453992 0
    outer loop
      vertex 0.640211 0.511803 0
      vertex 0.611803 0.567556 0.9
      vertex 0.611803 0.567556 0
    endloop
  endfacet
  facet normal -0.891006 -0.453992 0
    outer loop
      vertex 0.611803 0.567556 0.9
      vertex 0.640211 0.511803 0
      vertex 0.640211 0.511803 0.9
    endloop
  endfacet
  facet normal -0.156433 -0.987689 0
    outer loop
      vertex 0.45 0.65 0
      vertex 0.511803 0.640211 0.9
      vertex 0.45 0.65 0.9
    endloop
  endfacet
  facet normal -0.156433 -0.987689 -0
    outer loop
      vertex 0.511803 0.640211 0.9
      vertex 0.45 0.65 0
      vertex 0.511803 0.640211 0
    endloop
  endfacet
  facet normal 0.891006 -0.453992 0
    outer loop
      vertex 0.259789 0.511803 0.9
      vertex 0.288197 0.567556 0
      vertex 0.288197 0.567556 0.9
    endloop
  endfacet
  facet normal 0.891006 -0.453992 0
    outer loop
      vertex 0.288197 0.567556 0
      vertex 0.259789 0.511803 0.9
      vertex 0.259789 0.511803 0
    endloop
  endfacet
  facet normal 0.987689 -0.156433 0
    outer loop
      vertex 0.25 0.45 0.9
      vertex 0.259789 0.511803 0
      vertex 0.259789 0.511803 0.9
    endloop
  endfacet
  facet normal 0.987689 -0.156433 0
    outer loop
      vertex 0.259789 0.511803 0
      vertex 0.25 0.45 0.9
      vertex 0.25 0.45 0
    endloop
  endfacet
  facet normal 0.453992 -0.891006 0
    outer loop
      vertex 0.332442 0.611803 0
      vertex 0.388196 0.640211 0.9
      vertex 0.332442 0.611803 0.9
    endloop
  endfacet
  facet normal 0.453992 -0.891006 0
    outer loop
      vertex 0.388196 0.640211 0.9
      vertex 0.332442 0.611803 0
      vertex 0.388196 0.640211 0
    endloop
  endfacet
  facet normal -0.453992 0.891006 0
    outer loop
      vertex 0.567556 0.288197 0
      vertex 0.511803 0.259789 0.9
      vertex 0.567556 0.288197 0.9
    endloop
  endfacet
  facet normal -0.453992 0.891006 0
    outer loop
      vertex 0.511803 0.259789 0.9
      vertex 0.567556 0.288197 0
      vertex 0.511803 0.259789 0
    endloop
  endfacet
  facet normal -0.891006 0.453992 0
    outer loop
      vertex 0.611803 0.332442 0
      vertex 0.640211 0.388196 0.9
      vertex 0.640211 0.388196 0
    endloop
  endfacet
  facet normal -0.891006 0.453992 0
    outer loop
      vertex 0.640211 0.388196 0.9
      vertex 0.611803 0.332442 0
      vertex 0.611803 0.332442 0.9
    endloop
  endfacet
  facet normal 0.156431 0.987689 -0
    outer loop
      vertex 0.45 0.25 0
      vertex 0.388196 0.259789 0.9
      vertex 0.45 0.25 0.9
    endloop
  endfacet
  facet normal 0.156431 0.987689 0
    outer loop
      vertex 0.388196 0.259789 0.9
      vertex 0.45 0.25 0
      vertex 0.388196 0.259789 0
    endloop
  endfacet
  facet normal 0.891006 0.453992 0
    outer loop
      vertex 0.288197 0.332442 0.9
      vertex 0.259789 0.388196 0
      vertex 0.259789 0.388196 0.9
    endloop
  endfacet
  facet normal 0.891006 0.453992 0
    outer loop
      vertex 0.259789 0.388196 0
      vertex 0.288197 0.332442 0.9
      vertex 0.288197 0.332442 0
    endloop
  endfacet
  facet normal -0.707107 -0.707107 0
    outer loop
      vertex 0.611803 0.567556 0
      vertex 0.567556 0.611803 0.9
      vertex 0.567556 0.611803 0
    endloop
  endfacet
  facet normal -0.707107 -0.707107 0
    outer loop
      vertex 0.567556 0.611803 0.9
      vertex 0.611803 0.567556 0
      vertex 0.611803 0.567556 0.9
    endloop
  endfacet
  facet normal 0.987689 0.156431 0
    outer loop
      vertex 0.259789 0.388196 0.9
      vertex 0.25 0.45 0
      vertex 0.25 0.45 0.9
    endloop
  endfacet
  facet normal 0.987689 0.156431 0
    outer loop
      vertex 0.25 0.45 0
      vertex 0.259789 0.388196 0.9
      vertex 0.259789 0.388196 0
    endloop
  endfacet
  facet normal 0.707114 -0.707099 0
    outer loop
      vertex 0.288197 0.567556 0.9
      vertex 0.332442 0.611803 0
      vertex 0.332442 0.611803 0.9
    endloop
  endfacet
  facet normal 0.707114 -0.707099 0
    outer loop
      vertex 0.332442 0.611803 0
      vertex 0.288197 0.567556 0.9
      vertex 0.288197 0.567556 0
    endloop
  endfacet
  facet normal -0.987689 0.156431 0
    outer loop
      vertex 0.640211 0.388196 0
      vertex 0.65 0.45 0.9
      vertex 0.65 0.45 0
    endloop
  endfacet
  facet normal -0.987689 0.156431 0
    outer loop
      vertex 0.65 0.45 0.9
      vertex 0.640211 0.388196 0
      vertex 0.640211 0.388196 0.9
    endloop
  endfacet
  facet normal -0.707099 0.707114 0
    outer loop
      vertex 0.611803 0.332442 0
      vertex 0.567556 0.288197 0.9
      vertex 0.611803 0.332442 0.9
    endloop
  endfacet
  facet normal -0.707099 0.707114 0
    outer loop
      vertex 0.567556 0.288197 0.9
      vertex 0.611803 0.332442 0
      vertex 0.567556 0.288197 0
    endloop
  endfacet
  facet normal -0.156433 0.987689 0
    outer loop
      vertex 0.511803 0.259789 0
      vertex 0.45 0.25 0.9
      vertex 0.511803 0.259789 0.9
    endloop
  endfacet
  facet normal -0.156433 0.987689 0
    outer loop
      vertex 0.45 0.25 0.9
      vertex 0.511803 0.259789 0
      vertex 0.45 0.25 0
    endloop
  endfacet
  facet normal 0.707107 0.707107 0
    outer loop
      vertex 0.332442 0.288197 0.9
      vertex 0.288197 0.332442 0
      vertex 0.288197 0.332442 0.9
    endloop
  endfacet
  facet normal 0.707107 0.707107 0
    outer loop
      vertex 0.288197 0.332442 0
      vertex 0.332442 0.288197 0.9
      vertex 0.332442 0.288197 0
    endloop
  endfacet
  facet normal -0.987689 -0.156431 0
    outer loop
      vertex 0.65 7.35 0
      vertex 0.640211 7.4118 0.9
      vertex 0.640211 7.4118 0
    endloop
  endfacet
  facet normal -0.987689 -0.156431 0
    outer loop
      vertex 0.640211 7.4118 0.9
      vertex 0.65 7.35 0
      vertex 0.65 7.35 0.9
    endloop
  endfacet
  facet normal 0.987689 -0.156431 0
    outer loop
      vertex 0.25 7.35 0.9
      vertex 0.259789 7.4118 0
      vertex 0.259789 7.4118 0.9
    endloop
  endfacet
  facet normal 0.987689 -0.156431 0
    outer loop
      vertex 0.259789 7.4118 0
      vertex 0.25 7.35 0.9
      vertex 0.25 7.35 0
    endloop
  endfacet
  facet normal 0.987689 0.156433 0
    outer loop
      vertex 0.259789 7.2882 0.9
      vertex 0.25 7.35 0
      vertex 0.25 7.35 0.9
    endloop
  endfacet
  facet normal 0.987689 0.156433 0
    outer loop
      vertex 0.25 7.35 0
      vertex 0.259789 7.2882 0.9
      vertex 0.259789 7.2882 0
    endloop
  endfacet
  facet normal 0.156431 -0.987689 0
    outer loop
      vertex 0.388196 7.54021 0
      vertex 0.45 7.55 0.9
      vertex 0.388196 7.54021 0.9
    endloop
  endfacet
  facet normal 0.156431 -0.987689 0
    outer loop
      vertex 0.45 7.55 0.9
      vertex 0.388196 7.54021 0
      vertex 0.45 7.55 0
    endloop
  endfacet
  facet normal -0.707099 -0.707114 0
    outer loop
      vertex 0.567556 7.5118 0
      vertex 0.611803 7.46756 0.9
      vertex 0.567556 7.5118 0.9
    endloop
  endfacet
  facet normal -0.707099 -0.707114 -0
    outer loop
      vertex 0.611803 7.46756 0.9
      vertex 0.567556 7.5118 0
      vertex 0.611803 7.46756 0
    endloop
  endfacet
  facet normal -0.891006 -0.453992 0
    outer loop
      vertex 0.640211 7.4118 0
      vertex 0.611803 7.46756 0.9
      vertex 0.611803 7.46756 0
    endloop
  endfacet
  facet normal -0.891006 -0.453992 0
    outer loop
      vertex 0.611803 7.46756 0.9
      vertex 0.640211 7.4118 0
      vertex 0.640211 7.4118 0.9
    endloop
  endfacet
  facet normal 0.453992 -0.891006 0
    outer loop
      vertex 0.332442 7.5118 0
      vertex 0.388196 7.54021 0.9
      vertex 0.332442 7.5118 0.9
    endloop
  endfacet
  facet normal 0.453992 -0.891006 0
    outer loop
      vertex 0.388196 7.54021 0.9
      vertex 0.332442 7.5118 0
      vertex 0.388196 7.54021 0
    endloop
  endfacet
  facet normal 0.707107 -0.707107 0
    outer loop
      vertex 0.288197 7.46756 0.9
      vertex 0.332442 7.5118 0
      vertex 0.332442 7.5118 0.9
    endloop
  endfacet
  facet normal 0.707107 -0.707107 0
    outer loop
      vertex 0.332442 7.5118 0
      vertex 0.288197 7.46756 0.9
      vertex 0.288197 7.46756 0
    endloop
  endfacet
  facet normal -0.453992 -0.891006 0
    outer loop
      vertex 0.511803 7.54021 0
      vertex 0.567556 7.5118 0.9
      vertex 0.511803 7.54021 0.9
    endloop
  endfacet
  facet normal -0.453992 -0.891006 -0
    outer loop
      vertex 0.567556 7.5118 0.9
      vertex 0.511803 7.54021 0
      vertex 0.567556 7.5118 0
    endloop
  endfacet
  facet normal -0.156433 -0.987689 0
    outer loop
      vertex 0.45 7.55 0
      vertex 0.511803 7.54021 0.9
      vertex 0.45 7.55 0.9
    endloop
  endfacet
  facet normal -0.156433 -0.987689 -0
    outer loop
      vertex 0.511803 7.54021 0.9
      vertex 0.45 7.55 0
      vertex 0.511803 7.54021 0
    endloop
  endfacet
  facet normal 0.891006 -0.453992 0
    outer loop
      vertex 0.259789 7.4118 0.9
      vertex 0.288197 7.46756 0
      vertex 0.288197 7.46756 0.9
    endloop
  endfacet
  facet normal 0.891006 -0.453992 0
    outer loop
      vertex 0.288197 7.46756 0
      vertex 0.259789 7.4118 0.9
      vertex 0.259789 7.4118 0
    endloop
  endfacet
  facet normal -0.891006 0.453992 0
    outer loop
      vertex 0.611803 7.23244 0
      vertex 0.640211 7.2882 0.9
      vertex 0.640211 7.2882 0
    endloop
  endfacet
  facet normal -0.891006 0.453992 0
    outer loop
      vertex 0.640211 7.2882 0.9
      vertex 0.611803 7.23244 0
      vertex 0.611803 7.23244 0.9
    endloop
  endfacet
  facet normal -0.987689 0.156433 0
    outer loop
      vertex 0.640211 7.2882 0
      vertex 0.65 7.35 0.9
      vertex 0.65 7.35 0
    endloop
  endfacet
  facet normal -0.987689 0.156433 0
    outer loop
      vertex 0.65 7.35 0.9
      vertex 0.640211 7.2882 0
      vertex 0.640211 7.2882 0.9
    endloop
  endfacet
  facet normal 0.453992 0.891006 -0
    outer loop
      vertex 0.388196 7.15979 0
      vertex 0.332442 7.1882 0.9
      vertex 0.388196 7.15979 0.9
    endloop
  endfacet
  facet normal 0.453992 0.891006 0
    outer loop
      vertex 0.332442 7.1882 0.9
      vertex 0.388196 7.15979 0
      vertex 0.332442 7.1882 0
    endloop
  endfacet
  facet normal 0.891006 0.453992 0
    outer loop
      vertex 0.288197 7.23244 0.9
      vertex 0.259789 7.2882 0
      vertex 0.259789 7.2882 0.9
    endloop
  endfacet
  facet normal 0.891006 0.453992 0
    outer loop
      vertex 0.259789 7.2882 0
      vertex 0.288197 7.23244 0.9
      vertex 0.288197 7.23244 0
    endloop
  endfacet
  facet normal -0.453992 0.891006 0
    outer loop
      vertex 0.567556 7.1882 0
      vertex 0.511803 7.15979 0.9
      vertex 0.567556 7.1882 0.9
    endloop
  endfacet
  facet normal -0.453992 0.891006 0
    outer loop
      vertex 0.511803 7.15979 0.9
      vertex 0.567556 7.1882 0
      vertex 0.511803 7.15979 0
    endloop
  endfacet
  facet normal -0.707107 0.707107 0
    outer loop
      vertex 0.567556 7.1882 0
      vertex 0.611803 7.23244 0.9
      vertex 0.611803 7.23244 0
    endloop
  endfacet
  facet normal -0.707107 0.707107 0
    outer loop
      vertex 0.611803 7.23244 0.9
      vertex 0.567556 7.1882 0
      vertex 0.567556 7.1882 0.9
    endloop
  endfacet
  facet normal 0.707114 0.707099 0
    outer loop
      vertex 0.332442 7.1882 0.9
      vertex 0.288197 7.23244 0
      vertex 0.288197 7.23244 0.9
    endloop
  endfacet
  facet normal 0.707114 0.707099 0
    outer loop
      vertex 0.288197 7.23244 0
      vertex 0.332442 7.1882 0.9
      vertex 0.332442 7.1882 0
    endloop
  endfacet
  facet normal -0.156433 0.987689 0
    outer loop
      vertex 0.511803 7.15979 0
      vertex 0.45 7.15 0.9
      vertex 0.511803 7.15979 0.9
    endloop
  endfacet
  facet normal -0.156433 0.987689 0
    outer loop
      vertex 0.45 7.15 0.9
      vertex 0.511803 7.15979 0
      vertex 0.45 7.15 0
    endloop
  endfacet
  facet normal 0.156431 0.987689 -0
    outer loop
      vertex 0.45 7.15 0
      vertex 0.388196 7.15979 0.9
      vertex 0.45 7.15 0.9
    endloop
  endfacet
  facet normal 0.156431 0.987689 0
    outer loop
      vertex 0.388196 7.15979 0.9
      vertex 0.45 7.15 0
      vertex 0.388196 7.15979 0
    endloop
  endfacet
  facet normal 0 -0.156433 0.987689
    outer loop
      vertex -0.5 5.4618 2.00979
      vertex 0.299999 5.4 2
      vertex 0.299999 5.4618 2.00979
    endloop
  endfacet
  facet normal 0 -0.156433 0.987689
    outer loop
      vertex 0.299999 5.4 2
      vertex -0.5 5.4618 2.00979
      vertex -0.5 5.4 2
    endloop
  endfacet
  facet normal 0 -0.156433 0.987689
    outer loop
      vertex 0.5 5.4618 2.00979
      vertex 1.3 5.4 2
      vertex 1.3 5.4618 2.00979
    endloop
  endfacet
  facet normal 0 -0.156433 0.987689
    outer loop
      vertex 1.3 5.4 2
      vertex 0.5 5.4618 2.00979
      vertex 0.5 5.4 2
    endloop
  endfacet
  facet normal 0 0.156431 -0.987689
    outer loop
      vertex -0.5 5.3382 2.39021
      vertex 0.299999 5.4 2.4
      vertex 0.299999 5.3382 2.39021
    endloop
  endfacet
  facet normal 0 0.156431 -0.987689
    outer loop
      vertex 0.299999 5.4 2.4
      vertex -0.5 5.3382 2.39021
      vertex -0.5 5.4 2.4
    endloop
  endfacet
  facet normal 0 0.156431 -0.987689
    outer loop
      vertex 0.5 5.3382 2.39021
      vertex 1.3 5.4 2.4
      vertex 1.3 5.3382 2.39021
    endloop
  endfacet
  facet normal 0 0.156431 -0.987689
    outer loop
      vertex 1.3 5.4 2.4
      vertex 0.5 5.3382 2.39021
      vertex 0.5 5.4 2.4
    endloop
  endfacet
  facet normal 0 -0.891006 0.453992
    outer loop
      vertex -0.5 5.5618 2.08244
      vertex 0.299999 5.59021 2.1382
      vertex -0.5 5.59021 2.1382
    endloop
  endfacet
  facet normal 0 -0.891006 0.453992
    outer loop
      vertex 0.299999 5.59021 2.1382
      vertex -0.5 5.5618 2.08244
      vertex 0.299999 5.5618 2.08244
    endloop
  endfacet
  facet normal 0 -0.891006 0.453992
    outer loop
      vertex 0.5 5.5618 2.08244
      vertex 1.3 5.59021 2.1382
      vertex 0.5 5.59021 2.1382
    endloop
  endfacet
  facet normal 0 -0.891006 0.453992
    outer loop
      vertex 1.3 5.59021 2.1382
      vertex 0.5 5.5618 2.08244
      vertex 1.3 5.5618 2.08244
    endloop
  endfacet
  facet normal 0 0.987689 0.156431
    outer loop
      vertex 0.299999 5.20979 2.1382
      vertex -0.5 5.2 2.2
      vertex 0.299999 5.2 2.2
    endloop
  endfacet
  facet normal 0 0.987689 0.156431
    outer loop
      vertex -0.5 5.2 2.2
      vertex 0.299999 5.20979 2.1382
      vertex -0.5 5.20979 2.1382
    endloop
  endfacet
  facet normal 0 0.987689 0.156431
    outer loop
      vertex 1.3 5.20979 2.1382
      vertex 0.5 5.2 2.2
      vertex 1.3 5.2 2.2
    endloop
  endfacet
  facet normal 0 0.987689 0.156431
    outer loop
      vertex 0.5 5.2 2.2
      vertex 1.3 5.20979 2.1382
      vertex 0.5 5.20979 2.1382
    endloop
  endfacet
  facet normal 0 -0.453992 0.891006
    outer loop
      vertex -0.5 5.51756 2.0382
      vertex 0.299999 5.4618 2.00979
      vertex 0.299999 5.51756 2.0382
    endloop
  endfacet
  facet normal 0 -0.453992 0.891006
    outer loop
      vertex 0.299999 5.4618 2.00979
      vertex -0.5 5.51756 2.0382
      vertex -0.5 5.4618 2.00979
    endloop
  endfacet
  facet normal 0 -0.453992 0.891006
    outer loop
      vertex 0.5 5.51756 2.0382
      vertex 1.3 5.4618 2.00979
      vertex 1.3 5.51756 2.0382
    endloop
  endfacet
  facet normal 0 -0.453992 0.891006
    outer loop
      vertex 1.3 5.4618 2.00979
      vertex 0.5 5.51756 2.0382
      vertex 0.5 5.4618 2.00979
    endloop
  endfacet
  facet normal 0 -0.891006 -0.453992
    outer loop
      vertex -0.5 5.59021 2.2618
      vertex 0.299999 5.5618 2.31756
      vertex -0.5 5.5618 2.31756
    endloop
  endfacet
  facet normal 0 -0.891006 -0.453992
    outer loop
      vertex 0.299999 5.5618 2.31756
      vertex -0.5 5.59021 2.2618
      vertex 0.299999 5.59021 2.2618
    endloop
  endfacet
  facet normal 0 -0.891006 -0.453992
    outer loop
      vertex 0.5 5.59021 2.2618
      vertex 1.3 5.5618 2.31756
      vertex 0.5 5.5618 2.31756
    endloop
  endfacet
  facet normal 0 -0.891006 -0.453992
    outer loop
      vertex 1.3 5.5618 2.31756
      vertex 0.5 5.59021 2.2618
      vertex 1.3 5.59021 2.2618
    endloop
  endfacet
  facet normal -0 0.156431 0.987689
    outer loop
      vertex -0.5 5.4 2
      vertex 0.299999 5.3382 2.00979
      vertex 0.299999 5.4 2
    endloop
  endfacet
  facet normal 0 0.156431 0.987689
    outer loop
      vertex 0.299999 5.3382 2.00979
      vertex -0.5 5.4 2
      vertex -0.5 5.3382 2.00979
    endloop
  endfacet
  facet normal -0 0.156431 0.987689
    outer loop
      vertex 0.5 5.4 2
      vertex 1.3 5.3382 2.00979
      vertex 1.3 5.4 2
    endloop
  endfacet
  facet normal 0 0.156431 0.987689
    outer loop
      vertex 1.3 5.3382 2.00979
      vertex 0.5 5.4 2
      vertex 0.5 5.3382 2.00979
    endloop
  endfacet
  facet normal 0 0.891006 0.453992
    outer loop
      vertex 0.299999 5.2382 2.08244
      vertex -0.5 5.20979 2.1382
      vertex 0.299999 5.20979 2.1382
    endloop
  endfacet
  facet normal 0 0.891006 0.453992
    outer loop
      vertex -0.5 5.20979 2.1382
      vertex 0.299999 5.2382 2.08244
      vertex -0.5 5.2382 2.08244
    endloop
  endfacet
  facet normal 0 0.891006 0.453992
    outer loop
      vertex 1.3 5.2382 2.08244
      vertex 0.5 5.20979 2.1382
      vertex 1.3 5.20979 2.1382
    endloop
  endfacet
  facet normal 0 0.891006 0.453992
    outer loop
      vertex 0.5 5.20979 2.1382
      vertex 1.3 5.2382 2.08244
      vertex 0.5 5.2382 2.08244
    endloop
  endfacet
  facet normal 0 0.707107 0.707107
    outer loop
      vertex 0.299999 5.28244 2.0382
      vertex -0.5 5.2382 2.08244
      vertex 0.299999 5.2382 2.08244
    endloop
  endfacet
  facet normal 0 0.707107 0.707107
    outer loop
      vertex -0.5 5.2382 2.08244
      vertex 0.299999 5.28244 2.0382
      vertex -0.5 5.28244 2.0382
    endloop
  endfacet
  facet normal 0 0.707107 0.707107
    outer loop
      vertex 1.3 5.28244 2.0382
      vertex 0.5 5.2382 2.08244
      vertex 1.3 5.2382 2.08244
    endloop
  endfacet
  facet normal 0 0.707107 0.707107
    outer loop
      vertex 0.5 5.2382 2.08244
      vertex 1.3 5.28244 2.0382
      vertex 0.5 5.28244 2.0382
    endloop
  endfacet
  facet normal 0 0.453992 -0.891006
    outer loop
      vertex -0.5 5.28244 2.3618
      vertex 0.299999 5.3382 2.39021
      vertex 0.299999 5.28244 2.3618
    endloop
  endfacet
  facet normal 0 0.453992 -0.891006
    outer loop
      vertex 0.299999 5.3382 2.39021
      vertex -0.5 5.28244 2.3618
      vertex -0.5 5.3382 2.39021
    endloop
  endfacet
  facet normal 0 0.453992 -0.891006
    outer loop
      vertex 0.5 5.28244 2.3618
      vertex 1.3 5.3382 2.39021
      vertex 1.3 5.28244 2.3618
    endloop
  endfacet
  facet normal 0 0.453992 -0.891006
    outer loop
      vertex 1.3 5.3382 2.39021
      vertex 0.5 5.28244 2.3618
      vertex 0.5 5.3382 2.39021
    endloop
  endfacet
  facet normal 0 0.987689 -0.156433
    outer loop
      vertex 0.299999 5.2 2.2
      vertex -0.5 5.20979 2.2618
      vertex 0.299999 5.20979 2.2618
    endloop
  endfacet
  facet normal 0 0.987689 -0.156433
    outer loop
      vertex -0.5 5.20979 2.2618
      vertex 0.299999 5.2 2.2
      vertex -0.5 5.2 2.2
    endloop
  endfacet
  facet normal 0 0.987689 -0.156433
    outer loop
      vertex 1.3 5.2 2.2
      vertex 0.5 5.20979 2.2618
      vertex 1.3 5.20979 2.2618
    endloop
  endfacet
  facet normal 0 0.987689 -0.156433
    outer loop
      vertex 0.5 5.20979 2.2618
      vertex 1.3 5.2 2.2
      vertex 0.5 5.2 2.2
    endloop
  endfacet
  facet normal 0 -0.707099 0.707114
    outer loop
      vertex -0.5 5.5618 2.08244
      vertex 0.299999 5.51756 2.0382
      vertex 0.299999 5.5618 2.08244
    endloop
  endfacet
  facet normal 0 -0.707099 0.707114
    outer loop
      vertex 0.299999 5.51756 2.0382
      vertex -0.5 5.5618 2.08244
      vertex -0.5 5.51756 2.0382
    endloop
  endfacet
  facet normal 0 -0.707099 0.707114
    outer loop
      vertex 0.5 5.5618 2.08244
      vertex 1.3 5.51756 2.0382
      vertex 1.3 5.5618 2.08244
    endloop
  endfacet
  facet normal 0 -0.707099 0.707114
    outer loop
      vertex 1.3 5.51756 2.0382
      vertex 0.5 5.5618 2.08244
      vertex 0.5 5.51756 2.0382
    endloop
  endfacet
  facet normal 0 -0.987689 -0.156433
    outer loop
      vertex -0.5 5.6 2.2
      vertex 0.299999 5.59021 2.2618
      vertex -0.5 5.59021 2.2618
    endloop
  endfacet
  facet normal 0 -0.987689 -0.156433
    outer loop
      vertex 0.299999 5.59021 2.2618
      vertex -0.5 5.6 2.2
      vertex 0.299999 5.6 2.2
    endloop
  endfacet
  facet normal 0 -0.987689 -0.156433
    outer loop
      vertex 0.5 5.6 2.2
      vertex 1.3 5.59021 2.2618
      vertex 0.5 5.59021 2.2618
    endloop
  endfacet
  facet normal 0 -0.987689 -0.156433
    outer loop
      vertex 1.3 5.59021 2.2618
      vertex 0.5 5.6 2.2
      vertex 1.3 5.6 2.2
    endloop
  endfacet
  facet normal 0 -0.987689 0.156431
    outer loop
      vertex -0.5 5.59021 2.1382
      vertex 0.299999 5.6 2.2
      vertex -0.5 5.6 2.2
    endloop
  endfacet
  facet normal 0 -0.987689 0.156431
    outer loop
      vertex 0.299999 5.6 2.2
      vertex -0.5 5.59021 2.1382
      vertex 0.299999 5.59021 2.1382
    endloop
  endfacet
  facet normal 0 -0.987689 0.156431
    outer loop
      vertex 0.5 5.59021 2.1382
      vertex 1.3 5.6 2.2
      vertex 0.5 5.6 2.2
    endloop
  endfacet
  facet normal 0 -0.987689 0.156431
    outer loop
      vertex 1.3 5.6 2.2
      vertex 0.5 5.59021 2.1382
      vertex 1.3 5.59021 2.1382
    endloop
  endfacet
  facet normal 0 -0.156433 -0.987689
    outer loop
      vertex -0.5 5.4 2.4
      vertex 0.299999 5.4618 2.39021
      vertex 0.299999 5.4 2.4
    endloop
  endfacet
  facet normal -0 -0.156433 -0.987689
    outer loop
      vertex 0.299999 5.4618 2.39021
      vertex -0.5 5.4 2.4
      vertex -0.5 5.4618 2.39021
    endloop
  endfacet
  facet normal 0 -0.156433 -0.987689
    outer loop
      vertex 0.5 5.4 2.4
      vertex 1.3 5.4618 2.39021
      vertex 1.3 5.4 2.4
    endloop
  endfacet
  facet normal -0 -0.156433 -0.987689
    outer loop
      vertex 1.3 5.4618 2.39021
      vertex 0.5 5.4 2.4
      vertex 0.5 5.4618 2.39021
    endloop
  endfacet
  facet normal 0 -0.707107 -0.707107
    outer loop
      vertex -0.5 5.5618 2.31756
      vertex 0.299999 5.51756 2.3618
      vertex -0.5 5.51756 2.3618
    endloop
  endfacet
  facet normal 0 -0.707107 -0.707107
    outer loop
      vertex 0.299999 5.51756 2.3618
      vertex -0.5 5.5618 2.31756
      vertex 0.299999 5.5618 2.31756
    endloop
  endfacet
  facet normal 0 -0.707107 -0.707107
    outer loop
      vertex 0.5 5.5618 2.31756
      vertex 1.3 5.51756 2.3618
      vertex 0.5 5.51756 2.3618
    endloop
  endfacet
  facet normal 0 -0.707107 -0.707107
    outer loop
      vertex 1.3 5.51756 2.3618
      vertex 0.5 5.5618 2.31756
      vertex 1.3 5.5618 2.31756
    endloop
  endfacet
  facet normal 0 -0.453992 -0.891006
    outer loop
      vertex -0.5 5.4618 2.39021
      vertex 0.299999 5.51756 2.3618
      vertex 0.299999 5.4618 2.39021
    endloop
  endfacet
  facet normal -0 -0.453992 -0.891006
    outer loop
      vertex 0.299999 5.51756 2.3618
      vertex -0.5 5.4618 2.39021
      vertex -0.5 5.51756 2.3618
    endloop
  endfacet
  facet normal 0 -0.453992 -0.891006
    outer loop
      vertex 0.5 5.4618 2.39021
      vertex 1.3 5.51756 2.3618
      vertex 1.3 5.4618 2.39021
    endloop
  endfacet
  facet normal -0 -0.453992 -0.891006
    outer loop
      vertex 1.3 5.51756 2.3618
      vertex 0.5 5.4618 2.39021
      vertex 0.5 5.51756 2.3618
    endloop
  endfacet
  facet normal 0 0.707114 -0.707099
    outer loop
      vertex 0.299999 5.2382 2.31756
      vertex -0.5 5.28244 2.3618
      vertex 0.299999 5.28244 2.3618
    endloop
  endfacet
  facet normal 0 0.707114 -0.707099
    outer loop
      vertex -0.5 5.28244 2.3618
      vertex 0.299999 5.2382 2.31756
      vertex -0.5 5.2382 2.31756
    endloop
  endfacet
  facet normal 0 0.707114 -0.707099
    outer loop
      vertex 1.3 5.2382 2.31756
      vertex 0.5 5.28244 2.3618
      vertex 1.3 5.28244 2.3618
    endloop
  endfacet
  facet normal 0 0.707114 -0.707099
    outer loop
      vertex 0.5 5.28244 2.3618
      vertex 1.3 5.2382 2.31756
      vertex 0.5 5.2382 2.31756
    endloop
  endfacet
  facet normal 0 0.891006 -0.453992
    outer loop
      vertex 0.299999 5.20979 2.2618
      vertex -0.5 5.2382 2.31756
      vertex 0.299999 5.2382 2.31756
    endloop
  endfacet
  facet normal 0 0.891006 -0.453992
    outer loop
      vertex -0.5 5.2382 2.31756
      vertex 0.299999 5.20979 2.2618
      vertex -0.5 5.20979 2.2618
    endloop
  endfacet
  facet normal 0 0.891006 -0.453992
    outer loop
      vertex 1.3 5.20979 2.2618
      vertex 0.5 5.2382 2.31756
      vertex 1.3 5.2382 2.31756
    endloop
  endfacet
  facet normal 0 0.891006 -0.453992
    outer loop
      vertex 0.5 5.2382 2.31756
      vertex 1.3 5.20979 2.2618
      vertex 0.5 5.20979 2.2618
    endloop
  endfacet
  facet normal -0 0.453992 0.891006
    outer loop
      vertex -0.5 5.3382 2.00979
      vertex 0.299999 5.28244 2.0382
      vertex 0.299999 5.3382 2.00979
    endloop
  endfacet
  facet normal 0 0.453992 0.891006
    outer loop
      vertex 0.299999 5.28244 2.0382
      vertex -0.5 5.3382 2.00979
      vertex -0.5 5.28244 2.0382
    endloop
  endfacet
  facet normal -0 0.453992 0.891006
    outer loop
      vertex 0.5 5.3382 2.00979
      vertex 1.3 5.28244 2.0382
      vertex 1.3 5.3382 2.00979
    endloop
  endfacet
  facet normal 0 0.453992 0.891006
    outer loop
      vertex 1.3 5.28244 2.0382
      vertex 0.5 5.3382 2.00979
      vertex 0.5 5.28244 2.0382
    endloop
  endfacet
  facet normal 0 -0.156433 0.987689
    outer loop
      vertex -0.5 2.4618 2.00979
      vertex 0.299999 2.4 2
      vertex 0.299999 2.4618 2.00979
    endloop
  endfacet
  facet normal 0 -0.156433 0.987689
    outer loop
      vertex 0.299999 2.4 2
      vertex -0.5 2.4618 2.00979
      vertex -0.5 2.4 2
    endloop
  endfacet
  facet normal 0 -0.156433 0.987689
    outer loop
      vertex 0.5 2.4618 2.00979
      vertex 1.3 2.4 2
      vertex 1.3 2.4618 2.00979
    endloop
  endfacet
  facet normal 0 -0.156433 0.987689
    outer loop
      vertex 1.3 2.4 2
      vertex 0.5 2.4618 2.00979
      vertex 0.5 2.4 2
    endloop
  endfacet
  facet normal 0 0.156431 -0.987689
    outer loop
      vertex -0.5 2.3382 2.39021
      vertex 0.299999 2.4 2.4
      vertex 0.299999 2.3382 2.39021
    endloop
  endfacet
  facet normal 0 0.156431 -0.987689
    outer loop
      vertex 0.299999 2.4 2.4
      vertex -0.5 2.3382 2.39021
      vertex -0.5 2.4 2.4
    endloop
  endfacet
  facet normal 0 0.156431 -0.987689
    outer loop
      vertex 0.5 2.3382 2.39021
      vertex 1.3 2.4 2.4
      vertex 1.3 2.3382 2.39021
    endloop
  endfacet
  facet normal 0 0.156431 -0.987689
    outer loop
      vertex 1.3 2.4 2.4
      vertex 0.5 2.3382 2.39021
      vertex 0.5 2.4 2.4
    endloop
  endfacet
  facet normal 0 -0.891006 0.453992
    outer loop
      vertex -0.5 2.5618 2.08244
      vertex 0.299999 2.59021 2.1382
      vertex -0.5 2.59021 2.1382
    endloop
  endfacet
  facet normal 0 -0.891006 0.453992
    outer loop
      vertex 0.299999 2.59021 2.1382
      vertex -0.5 2.5618 2.08244
      vertex 0.299999 2.5618 2.08244
    endloop
  endfacet
  facet normal 0 -0.891006 0.453992
    outer loop
      vertex 0.5 2.5618 2.08244
      vertex 1.3 2.59021 2.1382
      vertex 0.5 2.59021 2.1382
    endloop
  endfacet
  facet normal 0 -0.891006 0.453992
    outer loop
      vertex 1.3 2.59021 2.1382
      vertex 0.5 2.5618 2.08244
      vertex 1.3 2.5618 2.08244
    endloop
  endfacet
  facet normal 0 0.987689 0.156431
    outer loop
      vertex 0.299999 2.20979 2.1382
      vertex -0.5 2.2 2.2
      vertex 0.299999 2.2 2.2
    endloop
  endfacet
  facet normal 0 0.987689 0.156431
    outer loop
      vertex -0.5 2.2 2.2
      vertex 0.299999 2.20979 2.1382
      vertex -0.5 2.20979 2.1382
    endloop
  endfacet
  facet normal 0 0.987689 0.156431
    outer loop
      vertex 1.3 2.20979 2.1382
      vertex 0.5 2.2 2.2
      vertex 1.3 2.2 2.2
    endloop
  endfacet
  facet normal 0 0.987689 0.156431
    outer loop
      vertex 0.5 2.2 2.2
      vertex 1.3 2.20979 2.1382
      vertex 0.5 2.20979 2.1382
    endloop
  endfacet
  facet normal 0 -0.453992 0.891006
    outer loop
      vertex -0.5 2.51756 2.0382
      vertex 0.299999 2.4618 2.00979
      vertex 0.299999 2.51756 2.0382
    endloop
  endfacet
  facet normal 0 -0.453992 0.891006
    outer loop
      vertex 0.299999 2.4618 2.00979
      vertex -0.5 2.51756 2.0382
      vertex -0.5 2.4618 2.00979
    endloop
  endfacet
  facet normal 0 -0.453992 0.891006
    outer loop
      vertex 0.5 2.51756 2.0382
      vertex 1.3 2.4618 2.00979
      vertex 1.3 2.51756 2.0382
    endloop
  endfacet
  facet normal 0 -0.453992 0.891006
    outer loop
      vertex 1.3 2.4618 2.00979
      vertex 0.5 2.51756 2.0382
      vertex 0.5 2.4618 2.00979
    endloop
  endfacet
  facet normal 0 -0.891006 -0.453992
    outer loop
      vertex -0.5 2.59021 2.2618
      vertex 0.299999 2.5618 2.31756
      vertex -0.5 2.5618 2.31756
    endloop
  endfacet
  facet normal 0 -0.891006 -0.453992
    outer loop
      vertex 0.299999 2.5618 2.31756
      vertex -0.5 2.59021 2.2618
      vertex 0.299999 2.59021 2.2618
    endloop
  endfacet
  facet normal 0 -0.891006 -0.453992
    outer loop
      vertex 0.5 2.59021 2.2618
      vertex 1.3 2.5618 2.31756
      vertex 0.5 2.5618 2.31756
    endloop
  endfacet
  facet normal 0 -0.891006 -0.453992
    outer loop
      vertex 1.3 2.5618 2.31756
      vertex 0.5 2.59021 2.2618
      vertex 1.3 2.59021 2.2618
    endloop
  endfacet
  facet normal 0 -0.156433 -0.987689
    outer loop
      vertex -0.5 2.4 2.4
      vertex 0.299999 2.4618 2.39021
      vertex 0.299999 2.4 2.4
    endloop
  endfacet
  facet normal -0 -0.156433 -0.987689
    outer loop
      vertex 0.299999 2.4618 2.39021
      vertex -0.5 2.4 2.4
      vertex -0.5 2.4618 2.39021
    endloop
  endfacet
  facet normal 0 -0.156433 -0.987689
    outer loop
      vertex 0.5 2.4 2.4
      vertex 1.3 2.4618 2.39021
      vertex 1.3 2.4 2.4
    endloop
  endfacet
  facet normal -0 -0.156433 -0.987689
    outer loop
      vertex 1.3 2.4618 2.39021
      vertex 0.5 2.4 2.4
      vertex 0.5 2.4618 2.39021
    endloop
  endfacet
  facet normal -0 0.156431 0.987689
    outer loop
      vertex -0.5 2.4 2
      vertex 0.299999 2.3382 2.00979
      vertex 0.299999 2.4 2
    endloop
  endfacet
  facet normal 0 0.156431 0.987689
    outer loop
      vertex 0.299999 2.3382 2.00979
      vertex -0.5 2.4 2
      vertex -0.5 2.3382 2.00979
    endloop
  endfacet
  facet normal -0 0.156431 0.987689
    outer loop
      vertex 0.5 2.4 2
      vertex 1.3 2.3382 2.00979
      vertex 1.3 2.4 2
    endloop
  endfacet
  facet normal 0 0.156431 0.987689
    outer loop
      vertex 1.3 2.3382 2.00979
      vertex 0.5 2.4 2
      vertex 0.5 2.3382 2.00979
    endloop
  endfacet
  facet normal 0 0.891006 0.453992
    outer loop
      vertex 0.299999 2.2382 2.08244
      vertex -0.5 2.20979 2.1382
      vertex 0.299999 2.20979 2.1382
    endloop
  endfacet
  facet normal 0 0.891006 0.453992
    outer loop
      vertex -0.5 2.20979 2.1382
      vertex 0.299999 2.2382 2.08244
      vertex -0.5 2.2382 2.08244
    endloop
  endfacet
  facet normal 0 0.891006 0.453992
    outer loop
      vertex 1.3 2.2382 2.08244
      vertex 0.5 2.20979 2.1382
      vertex 1.3 2.20979 2.1382
    endloop
  endfacet
  facet normal 0 0.891006 0.453992
    outer loop
      vertex 0.5 2.20979 2.1382
      vertex 1.3 2.2382 2.08244
      vertex 0.5 2.2382 2.08244
    endloop
  endfacet
  facet normal 0 0.707107 0.707107
    outer loop
      vertex 0.299999 2.28244 2.0382
      vertex -0.5 2.2382 2.08244
      vertex 0.299999 2.2382 2.08244
    endloop
  endfacet
  facet normal 0 0.707107 0.707107
    outer loop
      vertex -0.5 2.2382 2.08244
      vertex 0.299999 2.28244 2.0382
      vertex -0.5 2.28244 2.0382
    endloop
  endfacet
  facet normal 0 0.707107 0.707107
    outer loop
      vertex 1.3 2.28244 2.0382
      vertex 0.5 2.2382 2.08244
      vertex 1.3 2.2382 2.08244
    endloop
  endfacet
  facet normal 0 0.707107 0.707107
    outer loop
      vertex 0.5 2.2382 2.08244
      vertex 1.3 2.28244 2.0382
      vertex 0.5 2.28244 2.0382
    endloop
  endfacet
  facet normal 0 0.453992 -0.891006
    outer loop
      vertex -0.5 2.28244 2.3618
      vertex 0.299999 2.3382 2.39021
      vertex 0.299999 2.28244 2.3618
    endloop
  endfacet
  facet normal 0 0.453992 -0.891006
    outer loop
      vertex 0.299999 2.3382 2.39021
      vertex -0.5 2.28244 2.3618
      vertex -0.5 2.3382 2.39021
    endloop
  endfacet
  facet normal 0 0.453992 -0.891006
    outer loop
      vertex 0.5 2.28244 2.3618
      vertex 1.3 2.3382 2.39021
      vertex 1.3 2.28244 2.3618
    endloop
  endfacet
  facet normal 0 0.453992 -0.891006
    outer loop
      vertex 1.3 2.3382 2.39021
      vertex 0.5 2.28244 2.3618
      vertex 0.5 2.3382 2.39021
    endloop
  endfacet
  facet normal 0 0.987689 -0.156433
    outer loop
      vertex 0.299999 2.2 2.2
      vertex -0.5 2.20979 2.2618
      vertex 0.299999 2.20979 2.2618
    endloop
  endfacet
  facet normal 0 0.987689 -0.156433
    outer loop
      vertex -0.5 2.20979 2.2618
      vertex 0.299999 2.2 2.2
      vertex -0.5 2.2 2.2
    endloop
  endfacet
  facet normal 0 0.987689 -0.156433
    outer loop
      vertex 1.3 2.2 2.2
      vertex 0.5 2.20979 2.2618
      vertex 1.3 2.20979 2.2618
    endloop
  endfacet
  facet normal 0 0.987689 -0.156433
    outer loop
      vertex 0.5 2.20979 2.2618
      vertex 1.3 2.2 2.2
      vertex 0.5 2.2 2.2
    endloop
  endfacet
  facet normal 0 -0.707099 0.707114
    outer loop
      vertex -0.5 2.5618 2.08244
      vertex 0.299999 2.51756 2.0382
      vertex 0.299999 2.5618 2.08244
    endloop
  endfacet
  facet normal 0 -0.707099 0.707114
    outer loop
      vertex 0.299999 2.51756 2.0382
      vertex -0.5 2.5618 2.08244
      vertex -0.5 2.51756 2.0382
    endloop
  endfacet
  facet normal 0 -0.707099 0.707114
    outer loop
      vertex 0.5 2.5618 2.08244
      vertex 1.3 2.51756 2.0382
      vertex 1.3 2.5618 2.08244
    endloop
  endfacet
  facet normal 0 -0.707099 0.707114
    outer loop
      vertex 1.3 2.51756 2.0382
      vertex 0.5 2.5618 2.08244
      vertex 0.5 2.51756 2.0382
    endloop
  endfacet
  facet normal 0 -0.987689 -0.156433
    outer loop
      vertex -0.5 2.6 2.2
      vertex 0.299999 2.59021 2.2618
      vertex -0.5 2.59021 2.2618
    endloop
  endfacet
  facet normal 0 -0.987689 -0.156433
    outer loop
      vertex 0.299999 2.59021 2.2618
      vertex -0.5 2.6 2.2
      vertex 0.299999 2.6 2.2
    endloop
  endfacet
  facet normal 0 -0.987689 -0.156433
    outer loop
      vertex 0.5 2.6 2.2
      vertex 1.3 2.59021 2.2618
      vertex 0.5 2.59021 2.2618
    endloop
  endfacet
  facet normal 0 -0.987689 -0.156433
    outer loop
      vertex 1.3 2.59021 2.2618
      vertex 0.5 2.6 2.2
      vertex 1.3 2.6 2.2
    endloop
  endfacet
  facet normal 0 -0.987689 0.156431
    outer loop
      vertex -0.5 2.59021 2.1382
      vertex 0.299999 2.6 2.2
      vertex -0.5 2.6 2.2
    endloop
  endfacet
  facet normal 0 -0.987689 0.156431
    outer loop
      vertex 0.299999 2.6 2.2
      vertex -0.5 2.59021 2.1382
      vertex 0.299999 2.59021 2.1382
    endloop
  endfacet
  facet normal 0 -0.987689 0.156431
    outer loop
      vertex 0.5 2.59021 2.1382
      vertex 1.3 2.6 2.2
      vertex 0.5 2.6 2.2
    endloop
  endfacet
  facet normal 0 -0.987689 0.156431
    outer loop
      vertex 1.3 2.6 2.2
      vertex 0.5 2.59021 2.1382
      vertex 1.3 2.59021 2.1382
    endloop
  endfacet
  facet normal 0 -0.707107 -0.707107
    outer loop
      vertex -0.5 2.5618 2.31756
      vertex 0.299999 2.51756 2.3618
      vertex -0.5 2.51756 2.3618
    endloop
  endfacet
  facet normal 0 -0.707107 -0.707107
    outer loop
      vertex 0.299999 2.51756 2.3618
      vertex -0.5 2.5618 2.31756
      vertex 0.299999 2.5618 2.31756
    endloop
  endfacet
  facet normal 0 -0.707107 -0.707107
    outer loop
      vertex 0.5 2.5618 2.31756
      vertex 1.3 2.51756 2.3618
      vertex 0.5 2.51756 2.3618
    endloop
  endfacet
  facet normal 0 -0.707107 -0.707107
    outer loop
      vertex 1.3 2.51756 2.3618
      vertex 0.5 2.5618 2.31756
      vertex 1.3 2.5618 2.31756
    endloop
  endfacet
  facet normal 0 -0.453992 -0.891006
    outer loop
      vertex -0.5 2.4618 2.39021
      vertex 0.299999 2.51756 2.3618
      vertex 0.299999 2.4618 2.39021
    endloop
  endfacet
  facet normal -0 -0.453992 -0.891006
    outer loop
      vertex 0.299999 2.51756 2.3618
      vertex -0.5 2.4618 2.39021
      vertex -0.5 2.51756 2.3618
    endloop
  endfacet
  facet normal 0 -0.453992 -0.891006
    outer loop
      vertex 0.5 2.4618 2.39021
      vertex 1.3 2.51756 2.3618
      vertex 1.3 2.4618 2.39021
    endloop
  endfacet
  facet normal -0 -0.453992 -0.891006
    outer loop
      vertex 1.3 2.51756 2.3618
      vertex 0.5 2.4618 2.39021
      vertex 0.5 2.51756 2.3618
    endloop
  endfacet
  facet normal 0 0.707114 -0.707099
    outer loop
      vertex 0.299999 2.2382 2.31756
      vertex -0.5 2.28244 2.3618
      vertex 0.299999 2.28244 2.3618
    endloop
  endfacet
  facet normal 0 0.707114 -0.707099
    outer loop
      vertex -0.5 2.28244 2.3618
      vertex 0.299999 2.2382 2.31756
      vertex -0.5 2.2382 2.31756
    endloop
  endfacet
  facet normal 0 0.707114 -0.707099
    outer loop
      vertex 1.3 2.2382 2.31756
      vertex 0.5 2.28244 2.3618
      vertex 1.3 2.28244 2.3618
    endloop
  endfacet
  facet normal 0 0.707114 -0.707099
    outer loop
      vertex 0.5 2.28244 2.3618
      vertex 1.3 2.2382 2.31756
      vertex 0.5 2.2382 2.31756
    endloop
  endfacet
  facet normal 0 0.891006 -0.453992
    outer loop
      vertex 0.299999 2.20979 2.2618
      vertex -0.5 2.2382 2.31756
      vertex 0.299999 2.2382 2.31756
    endloop
  endfacet
  facet normal 0 0.891006 -0.453992
    outer loop
      vertex -0.5 2.2382 2.31756
      vertex 0.299999 2.20979 2.2618
      vertex -0.5 2.20979 2.2618
    endloop
  endfacet
  facet normal 0 0.891006 -0.453992
    outer loop
      vertex 1.3 2.20979 2.2618
      vertex 0.5 2.2382 2.31756
      vertex 1.3 2.2382 2.31756
    endloop
  endfacet
  facet normal 0 0.891006 -0.453992
    outer loop
      vertex 0.5 2.2382 2.31756
      vertex 1.3 2.20979 2.2618
      vertex 0.5 2.20979 2.2618
    endloop
  endfacet
  facet normal -0 0.453992 0.891006
    outer loop
      vertex -0.5 2.3382 2.00979
      vertex 0.299999 2.28244 2.0382
      vertex 0.299999 2.3382 2.00979
    endloop
  endfacet
  facet normal 0 0.453992 0.891006
    outer loop
      vertex 0.299999 2.28244 2.0382
      vertex -0.5 2.3382 2.00979
      vertex -0.5 2.28244 2.0382
    endloop
  endfacet
  facet normal -0 0.453992 0.891006
    outer loop
      vertex 0.5 2.3382 2.00979
      vertex 1.3 2.28244 2.0382
      vertex 1.3 2.3382 2.00979
    endloop
  endfacet
  facet normal 0 0.453992 0.891006
    outer loop
      vertex 1.3 2.28244 2.0382
      vertex 0.5 2.3382 2.00979
      vertex 0.5 2.28244 2.0382
    endloop
  endfacet
endsolid OpenSCAD_Model
