solid PSU_Holder_ChCh
facet normal 0.5877852522924722 0.8090169943749481 0.0
  outer loop
    vertex -12.543974155515857 28.98400718964945 4.999999999999999
    vertex -11.793974155515857 28.43910029364543 0.01152700000000133
    vertex -12.543974155515857 28.98400718964945 0.01152700000000133
  endloop
endfacet
facet normal 0.5877852522924722 0.8090169943749481 0.0
  outer loop
    vertex -11.793974155515857 28.43910029364543 0.01152700000000133
    vertex -12.543974155515857 28.98400718964945 4.999999999999999
    vertex -11.793974155515857 28.43910029364543 4.999999999999999
  endloop
endfacet
facet normal -0.9510565162951536 0.3090169943749477 -0.0
  outer loop
    vertex -9.830448663953437 29.86568506808816 4.999999999999999
    vertex -10.116923172391015 28.98400718964945 0.01152700000000133
    vertex -10.116923172391015 28.98400718964945 4.999999999999999
  endloop
endfacet
facet normal -0.9510565162951536 0.3090169943749477 -0.0
  outer loop
    vertex -10.116923172391015 28.98400718964945 0.01152700000000133
    vertex -9.830448663953437 29.86568506808816 4.999999999999999
    vertex -9.830448663953437 29.86568506808816 0.01152700000000133
  endloop
endfacet
facet normal -0.5877852522924722 -0.8090169943749481 -0.0
  outer loop
    vertex -10.116923172391015 30.74736294652687 4.999999999999999
    vertex -10.866923172391015 31.29226984253089 0.01152700000000133
    vertex -10.116923172391015 30.74736294652687 0.01152700000000133
  endloop
endfacet
facet normal -0.5877852522924722 -0.8090169943749481 -0.0
  outer loop
    vertex -10.866923172391015 31.29226984253089 0.01152700000000133
    vertex -10.116923172391015 30.74736294652687 4.999999999999999
    vertex -10.866923172391015 31.29226984253089 4.999999999999999
  endloop
endfacet
facet normal -0.0 1.0 -0.0
  outer loop
    vertex -11.793974155515857 28.43910029364543 4.999999999999999
    vertex -10.866923172391015 28.43910029364543 0.01152700000000133
    vertex -11.793974155515857 28.43910029364543 0.01152700000000133
  endloop
endfacet
facet normal -0.0 1.0 -0.0
  outer loop
    vertex -10.866923172391015 28.43910029364543 0.01152700000000133
    vertex -11.793974155515857 28.43910029364543 4.999999999999999
    vertex -10.866923172391015 28.43910029364543 4.999999999999999
  endloop
endfacet
facet normal -0.9510565162951536 -0.3090169943749477 -0.0
  outer loop
    vertex -10.116923172391015 30.74736294652687 4.999999999999999
    vertex -9.830448663953437 29.86568506808816 0.01152700000000133
    vertex -9.830448663953437 29.86568506808816 4.999999999999999
  endloop
endfacet
facet normal -0.9510565162951536 -0.3090169943749477 -0.0
  outer loop
    vertex -9.830448663953437 29.86568506808816 0.01152700000000133
    vertex -10.116923172391015 30.74736294652687 4.999999999999999
    vertex -10.116923172391015 30.74736294652687 0.01152700000000133
  endloop
endfacet
facet normal -0.5877852522924722 0.8090169943749481 -0.0
  outer loop
    vertex -10.866923172391015 28.43910029364543 4.999999999999999
    vertex -10.116923172391015 28.98400718964945 0.01152700000000133
    vertex -10.866923172391015 28.43910029364543 0.01152700000000133
  endloop
endfacet
facet normal -0.5877852522924722 0.8090169943749481 -0.0
  outer loop
    vertex -10.116923172391015 28.98400718964945 0.01152700000000133
    vertex -10.866923172391015 28.43910029364543 4.999999999999999
    vertex -10.116923172391015 28.98400718964945 4.999999999999999
  endloop
endfacet
facet normal 0.951056516295154 0.3090169943749463 0.0
  outer loop
    vertex -12.830448663953435 29.86568506808816 0.01152700000000133
    vertex -12.543974155515857 28.98400718964945 4.999999999999999
    vertex -12.543974155515857 28.98400718964945 0.01152700000000133
  endloop
endfacet
facet normal 0.951056516295154 0.3090169943749463 0.0
  outer loop
    vertex -12.543974155515857 28.98400718964945 4.999999999999999
    vertex -12.830448663953435 29.86568506808816 0.01152700000000133
    vertex -12.830448663953435 29.86568506808816 4.999999999999999
  endloop
endfacet
facet normal -0.0 -0.7071067811865407 0.7071067811865543
  outer loop
    vertex -8.830448663953431 17.392479987331274 7.8999999999999995
    vertex -13.830448663953428 17.465685068088163 7.973205080756887
    vertex -13.830448663953428 17.392479987331274 7.8999999999999995
  endloop
endfacet
facet normal -0.0 -0.7071067811865407 0.7071067811865543
  outer loop
    vertex -13.830448663953428 17.465685068088163 7.973205080756887
    vertex -8.830448663953431 17.392479987331274 7.8999999999999995
    vertex -8.830448663953431 17.465685068088163 7.973205080756887
  endloop
endfacet
facet normal -0.0 -0.2588190451025246 0.9659258262890673
  outer loop
    vertex -8.830448663953431 17.465685068088163 7.973205080756887
    vertex -13.830448663953428 17.56568506808816 7.999999999999999
    vertex -13.830448663953428 17.465685068088163 7.973205080756887
  endloop
endfacet
facet normal -0.0 -0.2588190451025246 0.9659258262890673
  outer loop
    vertex -13.830448663953428 17.56568506808816 7.999999999999999
    vertex -8.830448663953431 17.465685068088163 7.973205080756887
    vertex -8.830448663953431 17.56568506808816 7.999999999999999
  endloop
endfacet
facet normal 0.0 -0.9659258262890706 0.2588190451025119
  outer loop
    vertex -8.830448663953431 17.392479987331274 7.8999999999999995
    vertex -13.830448663953428 17.365685068088162 7.8
    vertex -8.830448663953431 17.365685068088162 7.8
  endloop
endfacet
facet normal 0.0 -0.9659258262890706 0.2588190451025119
  outer loop
    vertex -13.830448663953428 17.365685068088162 7.8
    vertex -8.830448663953431 17.392479987331274 7.8999999999999995
    vertex -13.830448663953428 17.392479987331274 7.8999999999999995
  endloop
endfacet
facet normal 0.0 -0.7071067811865441 0.7071067811865509
  outer loop
    vertex -8.830448663953428 17.26568506808816 5.026794919243112
    vertex -13.830448663953428 17.33889014884505 5.1
    vertex -13.830448663953428 17.26568506808816 5.026794919243112
  endloop
endfacet
facet normal 0.0 -0.7071067811865441 0.7071067811865509
  outer loop
    vertex -13.830448663953428 17.33889014884505 5.1
    vertex -8.830448663953428 17.26568506808816 5.026794919243112
    vertex -8.830448663953428 17.33889014884505 5.1
  endloop
endfacet
facet normal 1.0 1.3796718812973951e-14 -1.3796718812973947e-14
  outer loop
    vertex -8.830448663953431 17.365685068088162 4.999999999999999
    vertex -8.830448663953428 17.26568506808816 5.026794919243112
    vertex -8.830448663953428 17.165685068088163 4.999999999999999
  endloop
endfacet
facet normal 1.0 1.3796718812973951e-14 -1.3796718812973947e-14
  outer loop
    vertex -8.830448663953428 17.26568506808816 5.026794919243112
    vertex -8.830448663953431 17.365685068088162 4.999999999999999
    vertex -8.830448663953428 17.33889014884505 5.1
  endloop
endfacet
facet normal 1.0 1.3796718812973951e-14 -1.3796718812973947e-14
  outer loop
    vertex -8.830448663953428 17.33889014884505 5.1
    vertex -8.830448663953431 17.365685068088162 4.999999999999999
    vertex -8.830448663953428 17.365685068088162 5.199999999999999
  endloop
endfacet
facet normal 0.5877852522924722 -0.8090169943749481 -0.0
  outer loop
    vertex -11.793974155515851 16.29226984253089 4.999999999999999
    vertex -12.543974155515851 15.74736294652687 -7.049916206369744e-16
    vertex -11.793974155515851 16.29226984253089 -7.049916206369744e-16
  endloop
endfacet
facet normal 0.5877852522924722 -0.8090169943749481 -0.0
  outer loop
    vertex -12.543974155515851 15.74736294652687 -7.049916206369744e-16
    vertex -11.793974155515851 16.29226984253089 4.999999999999999
    vertex -12.543974155515851 15.74736294652687 4.999999999999999
  endloop
endfacet
facet normal -0.5877852522924742 -0.8090169943749466 -0.0
  outer loop
    vertex -10.11692317239101 15.74736294652687 4.999999999999999
    vertex -10.86692317239101 16.292269842530892 -7.049916206369744e-16
    vertex -10.11692317239101 15.74736294652687 -7.049916206369744e-16
  endloop
endfacet
facet normal -0.5877852522924742 -0.8090169943749466 -0.0
  outer loop
    vertex -10.86692317239101 16.292269842530892 -7.049916206369744e-16
    vertex -10.11692317239101 15.74736294652687 4.999999999999999
    vertex -10.86692317239101 16.292269842530892 4.999999999999999
  endloop
endfacet
facet normal 0.951056516295154 -0.3090169943749463 -0.0
  outer loop
    vertex -12.543974155515851 15.74736294652687 -7.049916206369744e-16
    vertex -12.83044866395343 14.86568506808816 4.999999999999999
    vertex -12.83044866395343 14.86568506808816 -7.049916206369744e-16
  endloop
endfacet
facet normal 0.951056516295154 -0.3090169943749463 -0.0
  outer loop
    vertex -12.83044866395343 14.86568506808816 4.999999999999999
    vertex -12.543974155515851 15.74736294652687 -7.049916206369744e-16
    vertex -12.543974155515851 15.74736294652687 4.999999999999999
  endloop
endfacet
facet normal 0.951056516295154 0.3090169943749463 0.0
  outer loop
    vertex -12.83044866395343 14.86568506808816 -7.049916206369744e-16
    vertex -12.543974155515851 13.984007189649452 4.999999999999999
    vertex -12.543974155515851 13.984007189649452 -7.049916206369744e-16
  endloop
endfacet
facet normal 0.951056516295154 0.3090169943749463 0.0
  outer loop
    vertex -12.543974155515851 13.984007189649452 4.999999999999999
    vertex -12.83044866395343 14.86568506808816 -7.049916206369744e-16
    vertex -12.83044866395343 14.86568506808816 4.999999999999999
  endloop
endfacet
facet normal 0.5877852522924742 0.8090169943749466 0.0
  outer loop
    vertex -12.543974155515851 13.984007189649452 4.999999999999999
    vertex -11.793974155515851 13.43910029364543 -7.049916206369744e-16
    vertex -12.543974155515851 13.984007189649452 -7.049916206369744e-16
  endloop
endfacet
facet normal 0.5877852522924742 0.8090169943749466 0.0
  outer loop
    vertex -11.793974155515851 13.43910029364543 -7.049916206369744e-16
    vertex -12.543974155515851 13.984007189649452 4.999999999999999
    vertex -11.793974155515851 13.43910029364543 4.999999999999999
  endloop
endfacet
facet normal 3.0418677439319915e-15 -1.0 -0.0
  outer loop
    vertex -10.86692317239101 16.292269842530892 4.999999999999999
    vertex -11.793974155515851 16.29226984253089 -7.049916206369744e-16
    vertex -10.86692317239101 16.292269842530892 -7.049916206369744e-16
  endloop
endfacet
facet normal 3.0418677439319915e-15 -1.0 -0.0
  outer loop
    vertex -11.793974155515851 16.29226984253089 -7.049916206369744e-16
    vertex -10.86692317239101 16.292269842530892 4.999999999999999
    vertex -11.793974155515851 16.29226984253089 4.999999999999999
  endloop
endfacet
facet normal -0.9510565162951536 -0.3090169943749477 -0.0
  outer loop
    vertex -10.11692317239101 15.74736294652687 4.999999999999999
    vertex -9.83044866395343 14.86568506808816 -7.049916206369744e-16
    vertex -9.83044866395343 14.86568506808816 4.999999999999999
  endloop
endfacet
facet normal -0.9510565162951536 -0.3090169943749477 -0.0
  outer loop
    vertex -9.83044866395343 14.86568506808816 -7.049916206369744e-16
    vertex -10.11692317239101 15.74736294652687 4.999999999999999
    vertex -10.11692317239101 15.74736294652687 -7.049916206369744e-16
  endloop
endfacet
facet normal -0.0 1.0 -0.0
  outer loop
    vertex -11.793974155515851 13.43910029364543 4.999999999999999
    vertex -11.330448663953431 13.43910029364543 -7.049916206369744e-16
    vertex -11.793974155515851 13.43910029364543 -7.049916206369744e-16
  endloop
endfacet
facet normal -0.0 1.0 -0.0
  outer loop
    vertex -11.330448663953431 13.43910029364543 -7.049916206369744e-16
    vertex -11.793974155515851 13.43910029364543 4.999999999999999
    vertex -11.330448663953431 13.43910029364543 4.999999999999999
  endloop
endfacet
facet normal -6.083735487863983e-15 1.0 -0.0
  outer loop
    vertex -11.330448663953431 13.43910029364543 4.999999999999999
    vertex -10.86692317239101 13.439100293645431 -7.049916206369744e-16
    vertex -11.330448663953431 13.43910029364543 -7.049916206369744e-16
  endloop
endfacet
facet normal -6.083735487863983e-15 1.0 -0.0
  outer loop
    vertex -10.86692317239101 13.439100293645431 -7.049916206369744e-16
    vertex -11.330448663953431 13.43910029364543 4.999999999999999
    vertex -10.86692317239101 13.439100293645431 4.999999999999999
  endloop
endfacet
facet normal -0.5877852522924722 0.8090169943749481 -0.0
  outer loop
    vertex -10.86692317239101 13.439100293645431 4.999999999999999
    vertex -10.11692317239101 13.984007189649452 -7.049916206369744e-16
    vertex -10.86692317239101 13.439100293645431 -7.049916206369744e-16
  endloop
endfacet
facet normal -0.5877852522924722 0.8090169943749481 -0.0
  outer loop
    vertex -10.11692317239101 13.984007189649452 -7.049916206369744e-16
    vertex -10.86692317239101 13.439100293645431 4.999999999999999
    vertex -10.11692317239101 13.984007189649452 4.999999999999999
  endloop
endfacet
facet normal -0.9510565162951536 0.3090169943749477 -0.0
  outer loop
    vertex -9.83044866395343 14.86568506808816 4.999999999999999
    vertex -10.11692317239101 13.984007189649452 -7.049916206369744e-16
    vertex -10.11692317239101 13.984007189649452 4.999999999999999
  endloop
endfacet
facet normal -0.9510565162951536 0.3090169943749477 -0.0
  outer loop
    vertex -10.11692317239101 13.984007189649452 -7.049916206369744e-16
    vertex -9.83044866395343 14.86568506808816 4.999999999999999
    vertex -9.83044866395343 14.86568506808816 -7.049916206369744e-16
  endloop
endfacet
facet normal -0.0 0.7071067811865478 -0.7071067811865474
  outer loop
    vertex -13.830448663953428 19.865685068088162 4.330127018922194
    vertex -8.830448663953428 18.035558049165967 2.500000000000001
    vertex -13.830448663953428 18.035558049165967 2.500000000000001
  endloop
endfacet
facet normal -0.0 0.7071067811865478 -0.7071067811865474
  outer loop
    vertex -8.830448663953428 18.035558049165967 2.500000000000001
    vertex -13.830448663953428 19.865685068088162 4.330127018922194
    vertex -8.830448663953428 19.865685068088162 4.330127018922194
  endloop
endfacet
facet normal -0.0 -0.2588190451025205 -0.9659258262890684
  outer loop
    vertex -8.830448663953428 24.86568506808816 4.3301270189221945
    vertex -13.830448663953428 22.365685068088162 5.0
    vertex -13.830448663953428 24.86568506808816 4.3301270189221945
  endloop
endfacet
facet normal -0.0 -0.2588190451025205 -0.9659258262890684
  outer loop
    vertex -13.830448663953428 22.365685068088162 5.0
    vertex -8.830448663953428 24.86568506808816 4.3301270189221945
    vertex -8.830448663953428 22.365685068088162 5.0
  endloop
endfacet
facet normal -0.0 -0.7071067811865468 -0.7071067811865482
  outer loop
    vertex -8.830448663953428 26.695812087010356 2.500000000000001
    vertex -13.830448663953428 24.86568506808816 4.3301270189221945
    vertex -13.830448663953428 26.695812087010356 2.500000000000001
  endloop
endfacet
facet normal -0.0 -0.7071067811865468 -0.7071067811865482
  outer loop
    vertex -13.830448663953428 24.86568506808816 4.3301270189221945
    vertex -8.830448663953428 26.695812087010356 2.500000000000001
    vertex -8.830448663953428 24.86568506808816 4.3301270189221945
  endloop
endfacet
facet normal -0.0 0.9659258262890684 -0.2588190451025206
  outer loop
    vertex -13.830448663953428 18.035558049165967 2.500000000000001
    vertex -8.830448663953428 17.365685068088162 3.061616997868383e-16
    vertex -13.830448663953428 17.365685068088162 3.061616997868383e-16
  endloop
endfacet
facet normal -0.0 0.9659258262890684 -0.2588190451025206
  outer loop
    vertex -8.830448663953428 17.365685068088162 3.061616997868383e-16
    vertex -13.830448663953428 18.035558049165967 2.500000000000001
    vertex -8.830448663953428 18.035558049165967 2.500000000000001
  endloop
endfacet
facet normal -0.0 0.2588190451025205 -0.9659258262890684
  outer loop
    vertex -8.830448663953428 22.365685068088162 5.0
    vertex -13.830448663953428 19.865685068088162 4.330127018922194
    vertex -13.830448663953428 22.365685068088162 5.0
  endloop
endfacet
facet normal -0.0 0.2588190451025205 -0.9659258262890684
  outer loop
    vertex -13.830448663953428 19.865685068088162 4.330127018922194
    vertex -8.830448663953428 22.365685068088162 5.0
    vertex -8.830448663953428 19.865685068088162 4.330127018922194
  endloop
endfacet
facet normal 1.689123846462279e-19 -0.9659258262890706 0.2588190451025119
  outer loop
    vertex -8.830448663953428 17.365685068088162 5.199999999999999
    vertex -13.830448663953428 17.33889014884505 5.1
    vertex -8.830448663953428 17.33889014884505 5.1
  endloop
endfacet
facet normal 1.689123846462279e-19 -0.9659258262890706 0.2588190451025119
  outer loop
    vertex -13.830448663953428 17.33889014884505 5.1
    vertex -8.830448663953428 17.365685068088162 5.199999999999999
    vertex -13.830448663953428 17.365685068088162 5.199999999999999
  endloop
endfacet
facet normal 0.0 6.123233995736766e-17 -1.0
  outer loop
    vertex -13.830448663953428 17.365685068088162 3.061616997868383e-16
    vertex -12.543974155515851 15.74736294652687 -7.049916206369744e-16
    vertex -13.830448663953428 12.365685068088162 0.0
  endloop
endfacet
facet normal 0.0 6.123233995736766e-17 -1.0
  outer loop
    vertex -12.543974155515851 15.74736294652687 -7.049916206369744e-16
    vertex -13.830448663953428 17.365685068088162 3.061616997868383e-16
    vertex -11.793974155515851 16.29226984253089 -7.049916206369744e-16
  endloop
endfacet
facet normal 0.0 6.123233995736766e-17 -1.0
  outer loop
    vertex -11.793974155515851 16.29226984253089 -7.049916206369744e-16
    vertex -13.830448663953428 17.365685068088162 3.061616997868383e-16
    vertex -8.830448663953428 17.365685068088162 3.061616997868383e-16
  endloop
endfacet
facet normal 0.0 6.123233995736766e-17 -1.0
  outer loop
    vertex -13.830448663953428 12.365685068088162 0.0
    vertex -12.543974155515851 15.74736294652687 -7.049916206369744e-16
    vertex -12.83044866395343 14.86568506808816 -7.049916206369744e-16
  endloop
endfacet
facet normal 0.0 6.123233995736766e-17 -1.0
  outer loop
    vertex -11.793974155515851 16.29226984253089 -7.049916206369744e-16
    vertex -8.830448663953428 17.365685068088162 3.061616997868383e-16
    vertex -10.86692317239101 16.292269842530892 -7.049916206369744e-16
  endloop
endfacet
facet normal 0.0 6.123233995736766e-17 -1.0
  outer loop
    vertex -10.86692317239101 16.292269842530892 -7.049916206369744e-16
    vertex -8.830448663953428 17.365685068088162 3.061616997868383e-16
    vertex -10.11692317239101 15.74736294652687 -7.049916206369744e-16
  endloop
endfacet
facet normal 0.0 6.123233995736766e-17 -1.0
  outer loop
    vertex -10.11692317239101 15.74736294652687 -7.049916206369744e-16
    vertex -8.830448663953428 17.365685068088162 3.061616997868383e-16
    vertex -9.83044866395343 14.86568506808816 -7.049916206369744e-16
  endloop
endfacet
facet normal 0.0 6.123233995736766e-17 -1.0
  outer loop
    vertex -13.830448663953428 12.365685068088162 0.0
    vertex -11.793974155515851 13.43910029364543 -7.049916206369744e-16
    vertex -8.830448663953428 12.365685068088162 0.0
  endloop
endfacet
facet normal 0.0 6.123233995736766e-17 -1.0
  outer loop
    vertex -11.793974155515851 13.43910029364543 -7.049916206369744e-16
    vertex -13.830448663953428 12.365685068088162 0.0
    vertex -12.543974155515851 13.984007189649452 -7.049916206369744e-16
  endloop
endfacet
facet normal 0.0 6.123233995736766e-17 -1.0
  outer loop
    vertex -12.543974155515851 13.984007189649452 -7.049916206369744e-16
    vertex -13.830448663953428 12.365685068088162 0.0
    vertex -12.83044866395343 14.86568506808816 -7.049916206369744e-16
  endloop
endfacet
facet normal 0.0 6.123233995736766e-17 -1.0
  outer loop
    vertex -8.830448663953428 12.365685068088162 0.0
    vertex -11.793974155515851 13.43910029364543 -7.049916206369744e-16
    vertex -11.330448663953431 13.43910029364543 -7.049916206369744e-16
  endloop
endfacet
facet normal 0.0 6.123233995736766e-17 -1.0
  outer loop
    vertex -8.830448663953428 12.365685068088162 0.0
    vertex -11.330448663953431 13.43910029364543 -7.049916206369744e-16
    vertex -10.86692317239101 13.439100293645431 -7.049916206369744e-16
  endloop
endfacet
facet normal 0.0 6.123233995736766e-17 -1.0
  outer loop
    vertex -8.830448663953428 12.365685068088162 0.0
    vertex -10.86692317239101 13.439100293645431 -7.049916206369744e-16
    vertex -10.11692317239101 13.984007189649452 -7.049916206369744e-16
  endloop
endfacet
facet normal 0.0 6.123233995736766e-17 -1.0
  outer loop
    vertex -8.830448663953428 12.365685068088162 0.0
    vertex -10.11692317239101 13.984007189649452 -7.049916206369744e-16
    vertex -9.83044866395343 14.86568506808816 -7.049916206369744e-16
  endloop
endfacet
facet normal 0.0 6.123233995736766e-17 -1.0
  outer loop
    vertex -8.830448663953428 12.365685068088162 0.0
    vertex -9.83044866395343 14.86568506808816 -7.049916206369744e-16
    vertex -8.830448663953428 17.365685068088162 3.061616997868383e-16
  endloop
endfacet
facet normal -1.0 0.0 0.0
  outer loop
    vertex -13.830448663953428 17.392479987331274 7.8999999999999995
    vertex -13.830448663953428 17.365685068088162 5.199999999999999
    vertex -13.830448663953428 17.365685068088162 7.8
  endloop
endfacet
facet normal -1.0 0.0 0.0
  outer loop
    vertex -13.830448663953428 17.365685068088162 5.199999999999999
    vertex -13.830448663953428 17.392479987331274 7.8999999999999995
    vertex -13.830448663953428 17.365685068088162 3.061616997868383e-16
  endloop
endfacet
facet normal -1.0 0.0 0.0
  outer loop
    vertex -13.830448663953428 17.365685068088162 3.061616997868383e-16
    vertex -13.830448663953428 17.392479987331274 7.8999999999999995
    vertex -13.830448663953428 18.035558049165967 2.500000000000001
  endloop
endfacet
facet normal -1.0 0.0 0.0
  outer loop
    vertex -13.830448663953428 18.035558049165967 2.500000000000001
    vertex -13.830448663953428 17.392479987331274 7.8999999999999995
    vertex -13.830448663953428 17.465685068088163 7.973205080756887
  endloop
endfacet
facet normal -1.0 0.0 0.0
  outer loop
    vertex -13.830448663953428 18.035558049165967 2.500000000000001
    vertex -13.830448663953428 17.465685068088163 7.973205080756887
    vertex -13.830448663953428 17.56568506808816 7.999999999999999
  endloop
endfacet
facet normal -1.0 0.0 0.0
  outer loop
    vertex -13.830448663953428 18.035558049165967 2.500000000000001
    vertex -13.830448663953428 17.56568506808816 7.999999999999999
    vertex -13.830448663953428 19.865685068088162 4.330127018922194
  endloop
endfacet
facet normal -1.0 0.0 0.0
  outer loop
    vertex -13.830448663953428 19.865685068088162 4.330127018922194
    vertex -13.830448663953428 17.56568506808816 7.999999999999999
    vertex -13.830448663953428 27.16568506808816 7.999999999999999
  endloop
endfacet
facet normal -1.0 0.0 0.0
  outer loop
    vertex -13.830448663953428 19.865685068088162 4.330127018922194
    vertex -13.830448663953428 27.16568506808816 7.999999999999999
    vertex -13.830448663953428 22.365685068088162 5.0
  endloop
endfacet
facet normal -1.0 0.0 0.0
  outer loop
    vertex -13.830448663953428 22.365685068088162 5.0
    vertex -13.830448663953428 27.16568506808816 7.999999999999999
    vertex -13.830448663953428 24.86568506808816 4.3301270189221945
  endloop
endfacet
facet normal -1.0 0.0 0.0
  outer loop
    vertex -13.830448663953428 24.86568506808816 4.3301270189221945
    vertex -13.830448663953428 27.16568506808816 7.999999999999999
    vertex -13.830448663953428 26.695812087010356 2.500000000000001
  endloop
endfacet
facet normal -1.0 0.0 0.0
  outer loop
    vertex -13.830448663953428 26.695812087010356 2.500000000000001
    vertex -13.830448663953428 27.16568506808816 7.999999999999999
    vertex -13.830448663953428 27.365685068088162 -9.184850993605148e-16
  endloop
endfacet
facet normal -1.0 0.0 0.0
  outer loop
    vertex -13.830448663953428 27.365685068088162 -9.184850993605148e-16
    vertex -13.830448663953428 27.16568506808816 7.999999999999999
    vertex -13.830448663953428 27.265685068088157 7.973205080756887
  endloop
endfacet
facet normal -1.0 0.0 0.0
  outer loop
    vertex -13.830448663953428 27.365685068088162 -9.184850993605148e-16
    vertex -13.830448663953428 27.265685068088157 7.973205080756887
    vertex -13.830448663953428 27.338890148845042 7.8999999999999995
  endloop
endfacet
facet normal -1.0 0.0 0.0
  outer loop
    vertex -13.830448663953428 27.365685068088162 -9.184850993605148e-16
    vertex -13.830448663953428 27.338890148845042 7.8999999999999995
    vertex -13.830448663953428 27.36568506808816 5.199999999999999
  endloop
endfacet
facet normal -1.0 0.0 0.0
  outer loop
    vertex -13.830448663953428 27.36568506808816 5.199999999999999
    vertex -13.830448663953428 27.338890148845042 7.8999999999999995
    vertex -13.830448663953428 27.36568506808816 7.8
  endloop
endfacet
facet normal -1.0 0.0 0.0
  outer loop
    vertex -13.830448663953428 27.365685068088162 -9.184850993605148e-16
    vertex -13.830448663953428 27.36568506808816 5.199999999999999
    vertex -13.830448663953428 27.39247998733127 5.1
  endloop
endfacet
facet normal -1.0 0.0 0.0
  outer loop
    vertex -13.830448663953428 27.365685068088162 -9.184850993605148e-16
    vertex -13.830448663953428 27.39247998733127 5.1
    vertex -13.830448663953428 32.36568506808816 0.0
  endloop
endfacet
facet normal -1.0 0.0 0.0
  outer loop
    vertex -13.830448663953428 32.36568506808816 0.0
    vertex -13.830448663953428 27.39247998733127 5.1
    vertex -13.830448663953428 27.465685068088156 5.026794919243112
  endloop
endfacet
facet normal -1.0 0.0 0.0
  outer loop
    vertex -13.830448663953428 32.36568506808816 0.0
    vertex -13.830448663953428 27.465685068088156 5.026794919243112
    vertex -13.830448663953428 27.565685068088158 4.999999999999999
  endloop
endfacet
facet normal -1.0 0.0 0.0
  outer loop
    vertex -13.830448663953428 32.36568506808816 0.0
    vertex -13.830448663953428 27.565685068088158 4.999999999999999
    vertex -13.830448663953428 32.16568506808816 4.999999999999999
  endloop
endfacet
facet normal -1.0 0.0 0.0
  outer loop
    vertex -13.830448663953428 32.36568506808816 0.0
    vertex -13.830448663953428 32.16568506808816 4.999999999999999
    vertex -13.830448663953428 32.26568506808816 4.973205080756887
  endloop
endfacet
facet normal -1.0 0.0 0.0
  outer loop
    vertex -13.830448663953428 32.36568506808816 0.0
    vertex -13.830448663953428 32.26568506808816 4.973205080756887
    vertex -13.830448663953428 32.338890148845046 4.8999999999999995
  endloop
endfacet
facet normal -1.0 0.0 0.0
  outer loop
    vertex -13.830448663953428 32.36568506808816 0.0
    vertex -13.830448663953428 32.338890148845046 4.8999999999999995
    vertex -13.830448663953428 32.36568506808816 4.799999999999999
  endloop
endfacet
facet normal -1.0 0.0 0.0
  outer loop
    vertex -13.830448663953428 12.392479987331274 4.8999999999999995
    vertex -13.830448663953428 12.365685068088162 0.0
    vertex -13.830448663953428 12.365685068088162 4.799999999999999
  endloop
endfacet
facet normal -1.0 0.0 0.0
  outer loop
    vertex -13.830448663953428 12.365685068088162 0.0
    vertex -13.830448663953428 12.392479987331274 4.8999999999999995
    vertex -13.830448663953428 17.365685068088162 3.061616997868383e-16
  endloop
endfacet
facet normal -1.0 0.0 0.0
  outer loop
    vertex -13.830448663953428 17.365685068088162 3.061616997868383e-16
    vertex -13.830448663953428 12.392479987331274 4.8999999999999995
    vertex -13.830448663953428 12.465685068088163 4.973205080756887
  endloop
endfacet
facet normal -1.0 0.0 0.0
  outer loop
    vertex -13.830448663953428 17.365685068088162 3.061616997868383e-16
    vertex -13.830448663953428 12.465685068088163 4.973205080756887
    vertex -13.830448663953428 12.565685068088163 4.999999999999999
  endloop
endfacet
facet normal -1.0 0.0 0.0
  outer loop
    vertex -13.830448663953428 17.365685068088162 3.061616997868383e-16
    vertex -13.830448663953428 12.565685068088163 4.999999999999999
    vertex -13.830448663953428 17.165685068088163 4.999999999999999
  endloop
endfacet
facet normal -1.0 0.0 0.0
  outer loop
    vertex -13.830448663953428 17.365685068088162 3.061616997868383e-16
    vertex -13.830448663953428 17.165685068088163 4.999999999999999
    vertex -13.830448663953428 17.26568506808816 5.026794919243112
  endloop
endfacet
facet normal -1.0 0.0 0.0
  outer loop
    vertex -13.830448663953428 17.365685068088162 3.061616997868383e-16
    vertex -13.830448663953428 17.26568506808816 5.026794919243112
    vertex -13.830448663953428 17.33889014884505 5.1
  endloop
endfacet
facet normal -1.0 0.0 0.0
  outer loop
    vertex -13.830448663953428 17.365685068088162 3.061616997868383e-16
    vertex -13.830448663953428 17.33889014884505 5.1
    vertex -13.830448663953428 17.365685068088162 5.199999999999999
  endloop
endfacet
facet normal -0.0 1.0 -0.0
  outer loop
    vertex -13.830448663953428 32.36568506808816 4.799999999999999
    vertex -8.830448663953428 32.36568506808816 0.0
    vertex -13.830448663953428 32.36568506808816 0.0
  endloop
endfacet
facet normal -0.0 1.0 -0.0
  outer loop
    vertex -8.830448663953428 32.36568506808816 0.0
    vertex -13.830448663953428 32.36568506808816 4.799999999999999
    vertex -8.830448663953437 32.36568506808816 4.799999999999999
  endloop
endfacet
facet normal -0.0 -0.0 1.0
  outer loop
    vertex -8.830448663953431 17.56568506808816 7.999999999999999
    vertex -13.830448663953428 27.16568506808816 7.999999999999999
    vertex -13.830448663953428 17.56568506808816 7.999999999999999
  endloop
endfacet
facet normal -0.0 -0.0 1.0
  outer loop
    vertex -13.830448663953428 27.16568506808816 7.999999999999999
    vertex -8.830448663953431 17.56568506808816 7.999999999999999
    vertex -8.830448663953433 27.16568506808816 7.999999999999999
  endloop
endfacet
facet normal 1.0 1.9231459959854363e-16 5.744795509133296e-16
  outer loop
    vertex -8.830448663953428 17.365685068088162 3.061616997868383e-16
    vertex -8.830448663953431 12.365685068088162 4.799999999999999
    vertex -8.830448663953428 12.365685068088162 0.0
  endloop
endfacet
facet normal 1.0 1.9231459959854363e-16 5.744795509133296e-16
  outer loop
    vertex -8.830448663953431 12.365685068088162 4.799999999999999
    vertex -8.830448663953428 17.365685068088162 3.061616997868383e-16
    vertex -8.830448663953431 12.392479987331274 4.8999999999999995
  endloop
endfacet
facet normal 1.0 1.9231459959854363e-16 5.744795509133296e-16
  outer loop
    vertex -8.830448663953431 12.392479987331274 4.8999999999999995
    vertex -8.830448663953428 17.365685068088162 3.061616997868383e-16
    vertex -8.830448663953431 12.465685068088163 4.973205080756887
  endloop
endfacet
facet normal 1.0 1.9231459959854363e-16 5.744795509133296e-16
  outer loop
    vertex -8.830448663953431 12.465685068088163 4.973205080756887
    vertex -8.830448663953428 17.365685068088162 3.061616997868383e-16
    vertex -8.830448663953431 12.565685068088163 4.999999999999999
  endloop
endfacet
facet normal 1.0 1.9231459959854363e-16 5.744795509133296e-16
  outer loop
    vertex -8.830448663953431 12.565685068088163 4.999999999999999
    vertex -8.830448663953428 17.365685068088162 3.061616997868383e-16
    vertex -8.830448663953428 17.165685068088163 4.999999999999999
  endloop
endfacet
facet normal 1.0 1.9231459959854363e-16 5.744795509133296e-16
  outer loop
    vertex -8.830448663953428 17.165685068088163 4.999999999999999
    vertex -8.830448663953428 17.365685068088162 3.061616997868383e-16
    vertex -8.830448663953431 17.365685068088162 4.999999999999999
  endloop
endfacet
facet normal 1.0 1.9231459959854363e-16 5.744795509133296e-16
  outer loop
    vertex -8.830448663953431 17.365685068088162 4.999999999999999
    vertex -8.830448663953428 17.365685068088162 3.061616997868383e-16
    vertex -8.830448663953428 18.035558049165967 2.500000000000001
  endloop
endfacet
facet normal 1.0 1.9231459959854363e-16 5.744795509133296e-16
  outer loop
    vertex -8.830448663953431 17.365685068088162 4.999999999999999
    vertex -8.830448663953428 18.035558049165967 2.500000000000001
    vertex -8.830448663953428 17.365685068088162 5.199999999999999
  endloop
endfacet
facet normal 1.0 1.9231459959854363e-16 5.744795509133296e-16
  outer loop
    vertex -8.830448663953428 17.365685068088162 5.199999999999999
    vertex -8.830448663953428 18.035558049165967 2.500000000000001
    vertex -8.830448663953431 17.365685068088162 7.8
  endloop
endfacet
facet normal 1.0 1.9231459959854363e-16 5.744795509133296e-16
  outer loop
    vertex -8.830448663953431 17.365685068088162 7.8
    vertex -8.830448663953428 18.035558049165967 2.500000000000001
    vertex -8.830448663953431 17.392479987331274 7.8999999999999995
  endloop
endfacet
facet normal 1.0 1.9231459959854363e-16 5.744795509133296e-16
  outer loop
    vertex -8.830448663953431 17.392479987331274 7.8999999999999995
    vertex -8.830448663953428 18.035558049165967 2.500000000000001
    vertex -8.830448663953431 17.465685068088163 7.973205080756887
  endloop
endfacet
facet normal 1.0 1.9231459959854363e-16 5.744795509133296e-16
  outer loop
    vertex -8.830448663953431 17.465685068088163 7.973205080756887
    vertex -8.830448663953428 18.035558049165967 2.500000000000001
    vertex -8.830448663953431 17.56568506808816 7.999999999999999
  endloop
endfacet
facet normal 1.0 1.9231459959854363e-16 5.744795509133296e-16
  outer loop
    vertex -8.830448663953431 17.56568506808816 7.999999999999999
    vertex -8.830448663953428 18.035558049165967 2.500000000000001
    vertex -8.830448663953428 19.865685068088162 4.330127018922194
  endloop
endfacet
facet normal 1.0 1.9231459959854363e-16 5.744795509133296e-16
  outer loop
    vertex -8.830448663953431 17.56568506808816 7.999999999999999
    vertex -8.830448663953428 19.865685068088162 4.330127018922194
    vertex -8.830448663953433 27.16568506808816 7.999999999999999
  endloop
endfacet
facet normal 1.0 1.9231459959854363e-16 5.744795509133296e-16
  outer loop
    vertex -8.830448663953433 27.16568506808816 7.999999999999999
    vertex -8.830448663953428 19.865685068088162 4.330127018922194
    vertex -8.830448663953428 22.365685068088162 5.0
  endloop
endfacet
facet normal 1.0 1.9231459959854363e-16 5.744795509133296e-16
  outer loop
    vertex -8.830448663953433 27.16568506808816 7.999999999999999
    vertex -8.830448663953428 22.365685068088162 5.0
    vertex -8.830448663953428 24.86568506808816 4.3301270189221945
  endloop
endfacet
facet normal 1.0 1.9231459959854363e-16 5.744795509133296e-16
  outer loop
    vertex -8.830448663953433 27.16568506808816 7.999999999999999
    vertex -8.830448663953428 24.86568506808816 4.3301270189221945
    vertex -8.830448663953428 26.695812087010356 2.500000000000001
  endloop
endfacet
facet normal 1.0 1.9231459959854363e-16 5.744795509133296e-16
  outer loop
    vertex -8.830448663953433 27.16568506808816 7.999999999999999
    vertex -8.830448663953428 26.695812087010356 2.500000000000001
    vertex -8.830448663953428 27.365685068088162 -9.184850993605148e-16
  endloop
endfacet
facet normal 1.0 1.9231459959854363e-16 5.744795509133296e-16
  outer loop
    vertex -8.830448663953433 27.16568506808816 7.999999999999999
    vertex -8.830448663953428 27.365685068088162 -9.184850993605148e-16
    vertex -8.830448663953433 27.265685068088157 7.973205080756887
  endloop
endfacet
facet normal 1.0 1.9231459959854363e-16 5.744795509133296e-16
  outer loop
    vertex -8.830448663953433 27.265685068088157 7.973205080756887
    vertex -8.830448663953428 27.365685068088162 -9.184850993605148e-16
    vertex -8.830448663953433 27.338890148845042 7.8999999999999995
  endloop
endfacet
facet normal 1.0 1.9231459959854363e-16 5.744795509133296e-16
  outer loop
    vertex -8.830448663953433 27.338890148845042 7.8999999999999995
    vertex -8.830448663953428 27.365685068088162 -9.184850993605148e-16
    vertex -8.830448663953433 27.36568506808816 4.999999999999999
  endloop
endfacet
facet normal 1.0 1.9231459959854363e-16 5.744795509133296e-16
  outer loop
    vertex -8.830448663953433 27.36568506808816 4.999999999999999
    vertex -8.830448663953428 27.365685068088162 -9.184850993605148e-16
    vertex -8.830448663953428 27.565685068088158 4.999999999999999
  endloop
endfacet
facet normal 1.0 1.9231459959854363e-16 5.744795509133296e-16
  outer loop
    vertex -8.830448663953428 27.565685068088158 4.999999999999999
    vertex -8.830448663953428 27.365685068088162 -9.184850993605148e-16
    vertex -8.830448663953428 32.36568506808816 0.0
  endloop
endfacet
facet normal 1.0 1.9231459959854363e-16 5.744795509133296e-16
  outer loop
    vertex -8.830448663953428 27.565685068088158 4.999999999999999
    vertex -8.830448663953428 32.36568506808816 0.0
    vertex -8.830448663953437 32.16568506808816 4.999999999999999
  endloop
endfacet
facet normal 1.0 1.9231459959854363e-16 5.744795509133296e-16
  outer loop
    vertex -8.830448663953437 32.16568506808816 4.999999999999999
    vertex -8.830448663953428 32.36568506808816 0.0
    vertex -8.830448663953437 32.26568506808816 4.973205080756887
  endloop
endfacet
facet normal 1.0 1.9231459959854363e-16 5.744795509133296e-16
  outer loop
    vertex -8.830448663953437 32.26568506808816 4.973205080756887
    vertex -8.830448663953428 32.36568506808816 0.0
    vertex -8.830448663953437 32.338890148845046 4.8999999999999995
  endloop
endfacet
facet normal 1.0 1.9231459959854363e-16 5.744795509133296e-16
  outer loop
    vertex -8.830448663953437 32.338890148845046 4.8999999999999995
    vertex -8.830448663953428 32.36568506808816 0.0
    vertex -8.830448663953437 32.36568506808816 4.799999999999999
  endloop
endfacet
facet normal 1.0 1.9231459959854363e-16 5.744795509133296e-16
  outer loop
    vertex -8.830448663953433 27.36568506808816 4.999999999999999
    vertex -8.830448663953433 27.36568506808816 7.8
    vertex -8.830448663953433 27.338890148845042 7.8999999999999995
  endloop
endfacet
facet normal 1.0 1.9231459959854363e-16 5.744795509133296e-16
  outer loop
    vertex -8.830448663953433 27.36568506808816 7.8
    vertex -8.830448663953433 27.36568506808816 4.999999999999999
    vertex -8.830448663953428 27.36568506808816 5.199999999999999
  endloop
endfacet
facet normal 0.0 -1.0 0.0
  outer loop
    vertex -8.830448663953431 12.365685068088162 4.799999999999999
    vertex -13.830448663953428 12.365685068088162 0.0
    vertex -8.830448663953428 12.365685068088162 0.0
  endloop
endfacet
facet normal 0.0 -1.0 0.0
  outer loop
    vertex -13.830448663953428 12.365685068088162 0.0
    vertex -8.830448663953431 12.365685068088162 4.799999999999999
    vertex -13.830448663953428 12.365685068088162 4.799999999999999
  endloop
endfacet
facet normal -1.689123846460737e-19 -0.2588190451025246 -0.9659258262890673
  outer loop
    vertex -8.830448663953428 27.565685068088158 4.999999999999999
    vertex -13.830448663953428 27.465685068088156 5.026794919243112
    vertex -13.830448663953428 27.565685068088158 4.999999999999999
  endloop
endfacet
facet normal -1.689123846460737e-19 -0.2588190451025246 -0.9659258262890673
  outer loop
    vertex -13.830448663953428 27.465685068088156 5.026794919243112
    vertex -8.830448663953428 27.565685068088158 4.999999999999999
    vertex -8.830448663953428 27.465685068088156 5.026794919243112
  endloop
endfacet
facet normal -6.144996755971787e-31 -0.965925826289064 -0.25881904510253734
  outer loop
    vertex -8.830448663953428 27.36568506808816 5.199999999999999
    vertex -13.830448663953428 27.39247998733127 5.1
    vertex -8.830448663953428 27.39247998733127 5.1
  endloop
endfacet
facet normal -6.144996755971787e-31 -0.965925826289064 -0.25881904510253734
  outer loop
    vertex -13.830448663953428 27.39247998733127 5.1
    vertex -8.830448663953428 27.36568506808816 5.199999999999999
    vertex -13.830448663953428 27.36568506808816 5.199999999999999
  endloop
endfacet
facet normal -1.0 2.0695078219461112e-14 2.069507821946095e-14
  outer loop
    vertex -8.830448663953428 27.39247998733127 5.1
    vertex -8.830448663953433 27.36568506808816 4.999999999999999
    vertex -8.830448663953428 27.36568506808816 5.199999999999999
  endloop
endfacet
facet normal -1.0 2.0695078219461112e-14 2.069507821946095e-14
  outer loop
    vertex -8.830448663953433 27.36568506808816 4.999999999999999
    vertex -8.830448663953428 27.39247998733127 5.1
    vertex -8.830448663953428 27.465685068088156 5.026794919243112
  endloop
endfacet
facet normal -1.0 2.0695078219461112e-14 2.069507821946095e-14
  outer loop
    vertex -8.830448663953433 27.36568506808816 4.999999999999999
    vertex -8.830448663953428 27.465685068088156 5.026794919243112
    vertex -8.830448663953428 27.565685068088158 4.999999999999999
  endloop
endfacet
facet normal -0.0 -0.7071067811865578 -0.7071067811865374
  outer loop
    vertex -8.830448663953428 27.39247998733127 5.1
    vertex -13.830448663953428 27.465685068088156 5.026794919243112
    vertex -8.830448663953428 27.465685068088156 5.026794919243112
  endloop
endfacet
facet normal -0.0 -0.7071067811865578 -0.7071067811865374
  outer loop
    vertex -13.830448663953428 27.465685068088156 5.026794919243112
    vertex -8.830448663953428 27.39247998733127 5.1
    vertex -13.830448663953428 27.39247998733127 5.1
  endloop
endfacet
facet normal 1.6891238464653437e-19 0.965925826289064 0.25881904510253734
  outer loop
    vertex -13.830448663953428 27.338890148845042 7.8999999999999995
    vertex -8.830448663953433 27.36568506808816 7.8
    vertex -13.830448663953428 27.36568506808816 7.8
  endloop
endfacet
facet normal 1.6891238464653437e-19 0.965925826289064 0.25881904510253734
  outer loop
    vertex -8.830448663953433 27.36568506808816 7.8
    vertex -13.830448663953428 27.338890148845042 7.8999999999999995
    vertex -8.830448663953433 27.338890148845042 7.8999999999999995
  endloop
endfacet
facet normal 0.0 0.7071067811865543 0.7071067811865407
  outer loop
    vertex -13.830448663953428 27.265685068088157 7.973205080756887
    vertex -8.830448663953433 27.338890148845042 7.8999999999999995
    vertex -13.830448663953428 27.338890148845042 7.8999999999999995
  endloop
endfacet
facet normal 0.0 0.7071067811865543 0.7071067811865407
  outer loop
    vertex -8.830448663953433 27.338890148845042 7.8999999999999995
    vertex -13.830448663953428 27.265685068088157 7.973205080756887
    vertex -8.830448663953433 27.265685068088157 7.973205080756887
  endloop
endfacet
facet normal 1.689123846457668e-19 0.2588190451025246 0.9659258262890673
  outer loop
    vertex -8.830448663953433 27.16568506808816 7.999999999999999
    vertex -13.830448663953428 27.265685068088157 7.973205080756887
    vertex -13.830448663953428 27.16568506808816 7.999999999999999
  endloop
endfacet
facet normal 1.689123846457668e-19 0.2588190451025246 0.9659258262890673
  outer loop
    vertex -13.830448663953428 27.265685068088157 7.973205080756887
    vertex -8.830448663953433 27.16568506808816 7.999999999999999
    vertex -8.830448663953433 27.265685068088157 7.973205080756887
  endloop
endfacet
facet normal -0.0 -0.0 1.0
  outer loop
    vertex -13.830448663953428 27.565685068088158 4.999999999999999
    vertex -12.543974155515857 28.98400718964945 4.999999999999999
    vertex -13.830448663953428 32.16568506808816 4.999999999999999
  endloop
endfacet
facet normal -0.0 -0.0 1.0
  outer loop
    vertex -12.543974155515857 28.98400718964945 4.999999999999999
    vertex -13.830448663953428 27.565685068088158 4.999999999999999
    vertex -11.793974155515857 28.43910029364543 4.999999999999999
  endloop
endfacet
facet normal -0.0 -0.0 1.0
  outer loop
    vertex -11.793974155515857 28.43910029364543 4.999999999999999
    vertex -13.830448663953428 27.565685068088158 4.999999999999999
    vertex -8.830448663953428 27.565685068088158 4.999999999999999
  endloop
endfacet
facet normal -0.0 -0.0 1.0
  outer loop
    vertex -13.830448663953428 32.16568506808816 4.999999999999999
    vertex -12.543974155515857 28.98400718964945 4.999999999999999
    vertex -12.830448663953435 29.86568506808816 4.999999999999999
  endloop
endfacet
facet normal -0.0 -0.0 1.0
  outer loop
    vertex -11.793974155515857 28.43910029364543 4.999999999999999
    vertex -8.830448663953428 27.565685068088158 4.999999999999999
    vertex -10.866923172391015 28.43910029364543 4.999999999999999
  endloop
endfacet
facet normal -0.0 -0.0 1.0
  outer loop
    vertex -10.866923172391015 28.43910029364543 4.999999999999999
    vertex -8.830448663953428 27.565685068088158 4.999999999999999
    vertex -10.116923172391015 28.98400718964945 4.999999999999999
  endloop
endfacet
facet normal -0.0 -0.0 1.0
  outer loop
    vertex -10.116923172391015 28.98400718964945 4.999999999999999
    vertex -8.830448663953428 27.565685068088158 4.999999999999999
    vertex -9.830448663953437 29.86568506808816 4.999999999999999
  endloop
endfacet
facet normal -0.0 -0.0 1.0
  outer loop
    vertex -9.830448663953437 29.86568506808816 4.999999999999999
    vertex -8.830448663953428 27.565685068088158 4.999999999999999
    vertex -8.830448663953437 32.16568506808816 4.999999999999999
  endloop
endfacet
facet normal -0.0 -0.0 1.0
  outer loop
    vertex -13.830448663953428 32.16568506808816 4.999999999999999
    vertex -11.793974155515857 31.29226984253089 4.999999999999999
    vertex -8.830448663953437 32.16568506808816 4.999999999999999
  endloop
endfacet
facet normal -0.0 -0.0 1.0
  outer loop
    vertex -11.793974155515857 31.29226984253089 4.999999999999999
    vertex -13.830448663953428 32.16568506808816 4.999999999999999
    vertex -12.543974155515857 30.74736294652687 4.999999999999999
  endloop
endfacet
facet normal -0.0 -0.0 1.0
  outer loop
    vertex -12.543974155515857 30.74736294652687 4.999999999999999
    vertex -13.830448663953428 32.16568506808816 4.999999999999999
    vertex -12.830448663953435 29.86568506808816 4.999999999999999
  endloop
endfacet
facet normal -0.0 -0.0 1.0
  outer loop
    vertex -8.830448663953437 32.16568506808816 4.999999999999999
    vertex -11.793974155515857 31.29226984253089 4.999999999999999
    vertex -11.330448663953437 31.29226984253089 4.999999999999999
  endloop
endfacet
facet normal -0.0 -0.0 1.0
  outer loop
    vertex -8.830448663953437 32.16568506808816 4.999999999999999
    vertex -11.330448663953437 31.29226984253089 4.999999999999999
    vertex -10.866923172391015 31.29226984253089 4.999999999999999
  endloop
endfacet
facet normal -0.0 -0.0 1.0
  outer loop
    vertex -8.830448663953437 32.16568506808816 4.999999999999999
    vertex -10.866923172391015 31.29226984253089 4.999999999999999
    vertex -10.116923172391015 30.74736294652687 4.999999999999999
  endloop
endfacet
facet normal -0.0 -0.0 1.0
  outer loop
    vertex -8.830448663953437 32.16568506808816 4.999999999999999
    vertex -10.116923172391015 30.74736294652687 4.999999999999999
    vertex -9.830448663953437 29.86568506808816 4.999999999999999
  endloop
endfacet
facet normal 5.793271943358029e-18 -0.9659258262890684 -0.25881904510252046
  outer loop
    vertex -8.830448663953428 26.695812087010356 2.500000000000001
    vertex -13.830448663953428 27.365685068088162 -9.184850993605148e-16
    vertex -8.830448663953428 27.365685068088162 -9.184850993605148e-16
  endloop
endfacet
facet normal 5.793271943358029e-18 -0.9659258262890684 -0.25881904510252046
  outer loop
    vertex -13.830448663953428 27.365685068088162 -9.184850993605148e-16
    vertex -8.830448663953428 26.695812087010356 2.500000000000001
    vertex -13.830448663953428 26.695812087010356 2.500000000000001
  endloop
endfacet
facet normal -0.0 1.0 -0.0
  outer loop
    vertex -13.830448663953428 27.36568506808816 7.8
    vertex -8.830448663953428 27.36568506808816 5.199999999999999
    vertex -13.830448663953428 27.36568506808816 5.199999999999999
  endloop
endfacet
facet normal -0.0 1.0 -0.0
  outer loop
    vertex -8.830448663953428 27.36568506808816 5.199999999999999
    vertex -13.830448663953428 27.36568506808816 7.8
    vertex -8.830448663953433 27.36568506808816 7.8
  endloop
endfacet
facet normal 1.689123846460737e-19 -0.2588190451025246 0.9659258262890673
  outer loop
    vertex -8.830448663953428 17.165685068088163 4.999999999999999
    vertex -13.830448663953428 17.26568506808816 5.026794919243112
    vertex -13.830448663953428 17.165685068088163 4.999999999999999
  endloop
endfacet
facet normal 1.689123846460737e-19 -0.2588190451025246 0.9659258262890673
  outer loop
    vertex -13.830448663953428 17.26568506808816 5.026794919243112
    vertex -8.830448663953428 17.165685068088163 4.999999999999999
    vertex -8.830448663953428 17.26568506808816 5.026794919243112
  endloop
endfacet
facet normal -0.0 -1.0 -0.0
  outer loop
    vertex -10.866923172391015 31.29226984253089 4.999999999999999
    vertex -11.330448663953437 31.29226984253089 0.01152700000000133
    vertex -10.866923172391015 31.29226984253089 0.01152700000000133
  endloop
endfacet
facet normal -0.0 -1.0 -0.0
  outer loop
    vertex -11.330448663953437 31.29226984253089 0.01152700000000133
    vertex -10.866923172391015 31.29226984253089 4.999999999999999
    vertex -11.330448663953437 31.29226984253089 4.999999999999999
  endloop
endfacet
facet normal -0.0 -1.0 -0.0
  outer loop
    vertex -11.330448663953437 31.29226984253089 4.999999999999999
    vertex -11.793974155515857 31.29226984253089 0.01152700000000133
    vertex -11.330448663953437 31.29226984253089 0.01152700000000133
  endloop
endfacet
facet normal -0.0 -1.0 -0.0
  outer loop
    vertex -11.793974155515857 31.29226984253089 0.01152700000000133
    vertex -11.330448663953437 31.29226984253089 4.999999999999999
    vertex -11.793974155515857 31.29226984253089 4.999999999999999
  endloop
endfacet
facet normal 0.951056516295154 -0.3090169943749463 -0.0
  outer loop
    vertex -12.543974155515857 30.74736294652687 0.01152700000000133
    vertex -12.830448663953435 29.86568506808816 4.999999999999999
    vertex -12.830448663953435 29.86568506808816 0.01152700000000133
  endloop
endfacet
facet normal 0.951056516295154 -0.3090169943749463 -0.0
  outer loop
    vertex -12.830448663953435 29.86568506808816 4.999999999999999
    vertex -12.543974155515857 30.74736294652687 0.01152700000000133
    vertex -12.543974155515857 30.74736294652687 4.999999999999999
  endloop
endfacet
facet normal 0.5877852522924722 -0.8090169943749481 -0.0
  outer loop
    vertex -11.793974155515857 31.29226984253089 4.999999999999999
    vertex -12.543974155515857 30.74736294652687 0.01152700000000133
    vertex -11.793974155515857 31.29226984253089 0.01152700000000133
  endloop
endfacet
facet normal 0.5877852522924722 -0.8090169943749481 -0.0
  outer loop
    vertex -12.543974155515857 30.74736294652687 0.01152700000000133
    vertex -11.793974155515857 31.29226984253089 4.999999999999999
    vertex -12.543974155515857 30.74736294652687 4.999999999999999
  endloop
endfacet
facet normal -0.0 0.9659258262890644 0.25881904510253567
  outer loop
    vertex -13.830448663953428 32.338890148845046 4.8999999999999995
    vertex -8.830448663953437 32.36568506808816 4.799999999999999
    vertex -13.830448663953428 32.36568506808816 4.799999999999999
  endloop
endfacet
facet normal -0.0 0.9659258262890644 0.25881904510253567
  outer loop
    vertex -8.830448663953437 32.36568506808816 4.799999999999999
    vertex -13.830448663953428 32.338890148845046 4.8999999999999995
    vertex -8.830448663953437 32.338890148845046 4.8999999999999995
  endloop
endfacet
facet normal 0.0 0.7071067811865543 0.7071067811865407
  outer loop
    vertex -13.830448663953428 32.26568506808816 4.973205080756887
    vertex -8.830448663953437 32.338890148845046 4.8999999999999995
    vertex -13.830448663953428 32.338890148845046 4.8999999999999995
  endloop
endfacet
facet normal 0.0 0.7071067811865543 0.7071067811865407
  outer loop
    vertex -8.830448663953437 32.338890148845046 4.8999999999999995
    vertex -13.830448663953428 32.26568506808816 4.973205080756887
    vertex -8.830448663953437 32.26568506808816 4.973205080756887
  endloop
endfacet
facet normal 2.165511334512218e-19 0.2588190451025246 0.9659258262890673
  outer loop
    vertex -8.830448663953437 32.16568506808816 4.999999999999999
    vertex -13.830448663953428 32.26568506808816 4.973205080756887
    vertex -13.830448663953428 32.16568506808816 4.999999999999999
  endloop
endfacet
facet normal 2.165511334512218e-19 0.2588190451025246 0.9659258262890673
  outer loop
    vertex -13.830448663953428 32.26568506808816 4.973205080756887
    vertex -8.830448663953437 32.16568506808816 4.999999999999999
    vertex -8.830448663953437 32.26568506808816 4.973205080756887
  endloop
endfacet
facet normal -0.0 -0.7071067811865407 0.7071067811865543
  outer loop
    vertex -8.830448663953431 12.392479987331274 4.8999999999999995
    vertex -13.830448663953428 12.465685068088163 4.973205080756887
    vertex -13.830448663953428 12.392479987331274 4.8999999999999995
  endloop
endfacet
facet normal -0.0 -0.7071067811865407 0.7071067811865543
  outer loop
    vertex -13.830448663953428 12.465685068088163 4.973205080756887
    vertex -8.830448663953431 12.392479987331274 4.8999999999999995
    vertex -8.830448663953431 12.465685068088163 4.973205080756887
  endloop
endfacet
facet normal 0.0 -0.9659258262890711 0.2588190451025102
  outer loop
    vertex -8.830448663953431 12.392479987331274 4.8999999999999995
    vertex -13.830448663953428 12.365685068088162 4.799999999999999
    vertex -8.830448663953431 12.365685068088162 4.799999999999999
  endloop
endfacet
facet normal 0.0 -0.9659258262890711 0.2588190451025102
  outer loop
    vertex -13.830448663953428 12.365685068088162 4.799999999999999
    vertex -8.830448663953431 12.392479987331274 4.8999999999999995
    vertex -13.830448663953428 12.392479987331274 4.8999999999999995
  endloop
endfacet
facet normal -0.0 -0.2588190451025246 0.9659258262890673
  outer loop
    vertex -8.830448663953431 12.465685068088163 4.973205080756887
    vertex -13.830448663953428 12.565685068088163 4.999999999999999
    vertex -13.830448663953428 12.465685068088163 4.973205080756887
  endloop
endfacet
facet normal -0.0 -0.2588190451025246 0.9659258262890673
  outer loop
    vertex -13.830448663953428 12.565685068088163 4.999999999999999
    vertex -8.830448663953431 12.465685068088163 4.973205080756887
    vertex -8.830448663953431 12.565685068088163 4.999999999999999
  endloop
endfacet
facet normal 0.0 -1.0 0.0
  outer loop
    vertex -8.830448663953431 17.365685068088162 7.8
    vertex -13.830448663953428 17.365685068088162 5.199999999999999
    vertex -8.830448663953428 17.365685068088162 5.199999999999999
  endloop
endfacet
facet normal 0.0 -1.0 0.0
  outer loop
    vertex -13.830448663953428 17.365685068088162 5.199999999999999
    vertex -8.830448663953431 17.365685068088162 7.8
    vertex -13.830448663953428 17.365685068088162 7.8
  endloop
endfacet
facet normal -0.0 -0.0 1.0
  outer loop
    vertex -13.830448663953428 12.565685068088163 4.999999999999999
    vertex -12.543974155515851 13.984007189649452 4.999999999999999
    vertex -13.830448663953428 17.165685068088163 4.999999999999999
  endloop
endfacet
facet normal -0.0 -0.0 1.0
  outer loop
    vertex -12.543974155515851 13.984007189649452 4.999999999999999
    vertex -13.830448663953428 12.565685068088163 4.999999999999999
    vertex -11.793974155515851 13.43910029364543 4.999999999999999
  endloop
endfacet
facet normal -0.0 -0.0 1.0
  outer loop
    vertex -11.793974155515851 13.43910029364543 4.999999999999999
    vertex -13.830448663953428 12.565685068088163 4.999999999999999
    vertex -8.830448663953431 12.565685068088163 4.999999999999999
  endloop
endfacet
facet normal -0.0 -0.0 1.0
  outer loop
    vertex -13.830448663953428 17.165685068088163 4.999999999999999
    vertex -12.543974155515851 13.984007189649452 4.999999999999999
    vertex -12.83044866395343 14.86568506808816 4.999999999999999
  endloop
endfacet
facet normal -0.0 -0.0 1.0
  outer loop
    vertex -11.793974155515851 13.43910029364543 4.999999999999999
    vertex -8.830448663953431 12.565685068088163 4.999999999999999
    vertex -11.330448663953431 13.43910029364543 4.999999999999999
  endloop
endfacet
facet normal -0.0 -0.0 1.0
  outer loop
    vertex -11.330448663953431 13.43910029364543 4.999999999999999
    vertex -8.830448663953431 12.565685068088163 4.999999999999999
    vertex -10.86692317239101 13.439100293645431 4.999999999999999
  endloop
endfacet
facet normal -0.0 -0.0 1.0
  outer loop
    vertex -10.86692317239101 13.439100293645431 4.999999999999999
    vertex -8.830448663953431 12.565685068088163 4.999999999999999
    vertex -10.11692317239101 13.984007189649452 4.999999999999999
  endloop
endfacet
facet normal -0.0 -0.0 1.0
  outer loop
    vertex -10.11692317239101 13.984007189649452 4.999999999999999
    vertex -8.830448663953431 12.565685068088163 4.999999999999999
    vertex -9.83044866395343 14.86568506808816 4.999999999999999
  endloop
endfacet
facet normal -0.0 -0.0 1.0
  outer loop
    vertex -13.830448663953428 17.165685068088163 4.999999999999999
    vertex -11.793974155515851 16.29226984253089 4.999999999999999
    vertex -8.830448663953428 17.165685068088163 4.999999999999999
  endloop
endfacet
facet normal -0.0 -0.0 1.0
  outer loop
    vertex -11.793974155515851 16.29226984253089 4.999999999999999
    vertex -13.830448663953428 17.165685068088163 4.999999999999999
    vertex -12.543974155515851 15.74736294652687 4.999999999999999
  endloop
endfacet
facet normal -0.0 -0.0 1.0
  outer loop
    vertex -12.543974155515851 15.74736294652687 4.999999999999999
    vertex -13.830448663953428 17.165685068088163 4.999999999999999
    vertex -12.83044866395343 14.86568506808816 4.999999999999999
  endloop
endfacet
facet normal -0.0 -0.0 1.0
  outer loop
    vertex -8.830448663953428 17.165685068088163 4.999999999999999
    vertex -11.793974155515851 16.29226984253089 4.999999999999999
    vertex -10.86692317239101 16.292269842530892 4.999999999999999
  endloop
endfacet
facet normal -0.0 -0.0 1.0
  outer loop
    vertex -8.830448663953428 17.165685068088163 4.999999999999999
    vertex -10.86692317239101 16.292269842530892 4.999999999999999
    vertex -10.11692317239101 15.74736294652687 4.999999999999999
  endloop
endfacet
facet normal -0.0 -0.0 1.0
  outer loop
    vertex -8.830448663953428 17.165685068088163 4.999999999999999
    vertex -10.11692317239101 15.74736294652687 4.999999999999999
    vertex -9.83044866395343 14.86568506808816 4.999999999999999
  endloop
endfacet
facet normal -0.0 -0.0 1.0
  outer loop
    vertex -8.830448663953428 17.165685068088163 4.999999999999999
    vertex -9.83044866395343 14.86568506808816 4.999999999999999
    vertex -8.830448663953431 12.565685068088163 4.999999999999999
  endloop
endfacet
facet normal -8.223558593859462e-33 1.836970198721031e-16 -1.0
  outer loop
    vertex -13.830448663953428 32.36568506808816 0.0
    vertex -12.543974155515857 30.74736294652687 0.01152700000000133
    vertex -13.830448663953428 27.365685068088162 -9.184850993605148e-16
  endloop
endfacet
facet normal -8.223558593859462e-33 1.836970198721031e-16 -1.0
  outer loop
    vertex -12.543974155515857 30.74736294652687 0.01152700000000133
    vertex -13.830448663953428 32.36568506808816 0.0
    vertex -11.793974155515857 31.29226984253089 0.01152700000000133
  endloop
endfacet
facet normal -8.223558593859462e-33 1.836970198721031e-16 -1.0
  outer loop
    vertex -11.793974155515857 31.29226984253089 0.01152700000000133
    vertex -13.830448663953428 32.36568506808816 0.0
    vertex -8.830448663953428 32.36568506808816 0.0
  endloop
endfacet
facet normal -8.223558593859462e-33 1.836970198721031e-16 -1.0
  outer loop
    vertex -13.830448663953428 27.365685068088162 -9.184850993605148e-16
    vertex -12.543974155515857 30.74736294652687 0.01152700000000133
    vertex -12.830448663953435 29.86568506808816 0.01152700000000133
  endloop
endfacet
facet normal -8.223558593859462e-33 1.836970198721031e-16 -1.0
  outer loop
    vertex -11.793974155515857 31.29226984253089 0.01152700000000133
    vertex -8.830448663953428 32.36568506808816 0.0
    vertex -11.330448663953437 31.29226984253089 0.01152700000000133
  endloop
endfacet
facet normal -8.223558593859462e-33 1.836970198721031e-16 -1.0
  outer loop
    vertex -11.330448663953437 31.29226984253089 0.01152700000000133
    vertex -8.830448663953428 32.36568506808816 0.0
    vertex -10.866923172391015 31.29226984253089 0.01152700000000133
  endloop
endfacet
facet normal -8.223558593859462e-33 1.836970198721031e-16 -1.0
  outer loop
    vertex -10.866923172391015 31.29226984253089 0.01152700000000133
    vertex -8.830448663953428 32.36568506808816 0.0
    vertex -10.116923172391015 30.74736294652687 0.01152700000000133
  endloop
endfacet
facet normal -8.223558593859462e-33 1.836970198721031e-16 -1.0
  outer loop
    vertex -10.116923172391015 30.74736294652687 0.01152700000000133
    vertex -8.830448663953428 32.36568506808816 0.0
    vertex -9.830448663953437 29.86568506808816 0.01152700000000133
  endloop
endfacet
facet normal -8.223558593859462e-33 1.836970198721031e-16 -1.0
  outer loop
    vertex -13.830448663953428 27.365685068088162 -9.184850993605148e-16
    vertex -11.793974155515857 28.43910029364543 0.01152700000000133
    vertex -8.830448663953428 27.365685068088162 -9.184850993605148e-16
  endloop
endfacet
facet normal -8.223558593859462e-33 1.836970198721031e-16 -1.0
  outer loop
    vertex -11.793974155515857 28.43910029364543 0.01152700000000133
    vertex -13.830448663953428 27.365685068088162 -9.184850993605148e-16
    vertex -12.543974155515857 28.98400718964945 0.01152700000000133
  endloop
endfacet
facet normal -8.223558593859462e-33 1.836970198721031e-16 -1.0
  outer loop
    vertex -12.543974155515857 28.98400718964945 0.01152700000000133
    vertex -13.830448663953428 27.365685068088162 -9.184850993605148e-16
    vertex -12.830448663953435 29.86568506808816 0.01152700000000133
  endloop
endfacet
facet normal -8.223558593859462e-33 1.836970198721031e-16 -1.0
  outer loop
    vertex -8.830448663953428 27.365685068088162 -9.184850993605148e-16
    vertex -11.793974155515857 28.43910029364543 0.01152700000000133
    vertex -10.866923172391015 28.43910029364543 0.01152700000000133
  endloop
endfacet
facet normal -8.223558593859462e-33 1.836970198721031e-16 -1.0
  outer loop
    vertex -8.830448663953428 27.365685068088162 -9.184850993605148e-16
    vertex -10.866923172391015 28.43910029364543 0.01152700000000133
    vertex -10.116923172391015 28.98400718964945 0.01152700000000133
  endloop
endfacet
facet normal -8.223558593859462e-33 1.836970198721031e-16 -1.0
  outer loop
    vertex -8.830448663953428 27.365685068088162 -9.184850993605148e-16
    vertex -10.116923172391015 28.98400718964945 0.01152700000000133
    vertex -9.830448663953437 29.86568506808816 0.01152700000000133
  endloop
endfacet
facet normal -8.223558593859462e-33 1.836970198721031e-16 -1.0
  outer loop
    vertex -8.830448663953428 27.365685068088162 -9.184850993605148e-16
    vertex -9.830448663953437 29.86568506808816 0.01152700000000133
    vertex -8.830448663953428 32.36568506808816 0.0
  endloop
endfacet
endsolid PSU_Holder_ChCh
