solid PSU_Holder_ChCh
facet normal 0.8532818336519595 -0.0 0.5214500094539742
  outer loop
    vertex -45.80672866573464 43.58955615116755 0.0
    vertex -46.90672866573464 0.589556151167552 1.7999999999999998
    vertex -45.80672866573464 0.589556151167552 0.0
  endloop
endfacet
facet normal 0.8532818336519595 -0.0 0.5214500094539742
  outer loop
    vertex -46.90672866573464 0.589556151167552 1.7999999999999998
    vertex -45.80672866573464 43.58955615116755 0.0
    vertex -46.90672866573464 43.58955615116755 1.7999999999999998
  endloop
endfacet
facet normal 0.0 0.0 -1.0
  outer loop
    vertex -45.80672866573464 43.58955615116755 0.0
    vertex -87.80672866573464 0.589556151167552 0.0
    vertex -87.80672866573464 43.58955615116755 0.0
  endloop
endfacet
facet normal 0.0 0.0 -1.0
  outer loop
    vertex -87.80672866573464 0.589556151167552 0.0
    vertex -45.80672866573464 43.58955615116755 0.0
    vertex -45.80672866573464 0.589556151167552 0.0
  endloop
endfacet
facet normal -0.0 1.0 -0.0
  outer loop
    vertex -86.70672866573464 43.58955615116755 1.7999999999999998
    vertex -45.80672866573464 43.58955615116755 0.0
    vertex -87.80672866573464 43.58955615116755 0.0
  endloop
endfacet
facet normal -0.0 1.0 -0.0
  outer loop
    vertex -45.80672866573464 43.58955615116755 0.0
    vertex -86.70672866573464 43.58955615116755 1.7999999999999998
    vertex -46.90672866573464 43.58955615116755 1.7999999999999998
  endloop
endfacet
facet normal -0.8532818336519595 0.0 0.5214500094539742
  outer loop
    vertex -86.70672866573464 43.58955615116755 1.7999999999999998
    vertex -87.80672866573464 0.589556151167552 0.0
    vertex -86.70672866573464 0.589556151167552 1.7999999999999998
  endloop
endfacet
facet normal -0.8532818336519595 0.0 0.5214500094539742
  outer loop
    vertex -87.80672866573464 0.589556151167552 0.0
    vertex -86.70672866573464 43.58955615116755 1.7999999999999998
    vertex -87.80672866573464 43.58955615116755 0.0
  endloop
endfacet
facet normal -0.0 -0.0 1.0
  outer loop
    vertex -46.90672866573464 0.589556151167552 1.7999999999999998
    vertex -86.70672866573464 43.58955615116755 1.7999999999999998
    vertex -86.70672866573464 0.589556151167552 1.7999999999999998
  endloop
endfacet
facet normal -0.0 -0.0 1.0
  outer loop
    vertex -86.70672866573464 43.58955615116755 1.7999999999999998
    vertex -46.90672866573464 0.589556151167552 1.7999999999999998
    vertex -46.90672866573464 43.58955615116755 1.7999999999999998
  endloop
endfacet
facet normal 0.0 -1.0 0.0
  outer loop
    vertex -46.90672866573464 0.589556151167552 1.7999999999999998
    vertex -87.80672866573464 0.589556151167552 0.0
    vertex -45.80672866573464 0.589556151167552 0.0
  endloop
endfacet
facet normal 0.0 -1.0 0.0
  outer loop
    vertex -87.80672866573464 0.589556151167552 0.0
    vertex -46.90672866573464 0.589556151167552 1.7999999999999998
    vertex -86.70672866573464 0.589556151167552 1.7999999999999998
  endloop
endfacet
endsolid PSU_Holder_ChCh
